<mxfile host="app.diagrams.net" agent="Mozilla/5.0 (Macintosh; Intel Mac OS X 10_15_7) AppleWebKit/605.1.15 (KHTML, like Gecko) Version/17.6 Safari/605.1.15" version="24.7.17">
  <diagram name="Page-1" id="fNMds45U4PwnaxW4AGc1">
    <mxGraphModel dx="4185" dy="1618" grid="0" gridSize="10" guides="1" tooltips="1" connect="1" arrows="1" fold="1" page="0" pageScale="1" pageWidth="850" pageHeight="1100" math="0" shadow="0">
      <root>
        <mxCell id="0" />
        <mxCell id="1" parent="0" />
        <mxCell id="muOvpEpb0NtmlUYYNEdW-12" value="" style="rounded=0;whiteSpace=wrap;html=1;" vertex="1" parent="1">
          <mxGeometry x="-238" y="184" width="32" height="1125" as="geometry" />
        </mxCell>
        <mxCell id="muOvpEpb0NtmlUYYNEdW-15" value="" style="rounded=0;whiteSpace=wrap;html=1;" vertex="1" parent="1">
          <mxGeometry x="478" y="184" width="31" height="1125" as="geometry" />
        </mxCell>
        <mxCell id="rFN4JdDNjN4XjkR0yoPJ-14" value="" style="endArrow=classic;html=1;rounded=0;fontSize=12;startSize=8;endSize=8;strokeWidth=3;" parent="1" edge="1">
          <mxGeometry width="50" height="50" relative="1" as="geometry">
            <mxPoint x="-122" y="458" as="sourcePoint" />
            <mxPoint x="21" y="458.41" as="targetPoint" />
          </mxGeometry>
        </mxCell>
        <mxCell id="rFN4JdDNjN4XjkR0yoPJ-16" value="op[15:11]" style="text;html=1;align=center;verticalAlign=middle;whiteSpace=wrap;rounded=0;fontSize=20;" parent="1" vertex="1">
          <mxGeometry x="-92" y="420" width="60" height="30" as="geometry" />
        </mxCell>
        <mxCell id="rFN4JdDNjN4XjkR0yoPJ-17" value="" style="endArrow=classic;html=1;rounded=0;fontSize=12;startSize=8;endSize=8;curved=1;strokeWidth=3;" parent="1" edge="1">
          <mxGeometry width="50" height="50" relative="1" as="geometry">
            <mxPoint x="-120" y="713" as="sourcePoint" />
            <mxPoint x="137" y="712" as="targetPoint" />
          </mxGeometry>
        </mxCell>
        <mxCell id="rFN4JdDNjN4XjkR0yoPJ-18" value="op[10:8]" style="text;html=1;align=center;verticalAlign=middle;whiteSpace=wrap;rounded=0;fontSize=20;" parent="1" vertex="1">
          <mxGeometry x="-46" y="678" width="60" height="30" as="geometry" />
        </mxCell>
        <mxCell id="rFN4JdDNjN4XjkR0yoPJ-24" value="" style="endArrow=classic;html=1;rounded=0;fontSize=12;startSize=8;endSize=8;curved=1;strokeWidth=3;" parent="1" edge="1">
          <mxGeometry width="50" height="50" relative="1" as="geometry">
            <mxPoint x="-120" y="764" as="sourcePoint" />
            <mxPoint x="139" y="763" as="targetPoint" />
          </mxGeometry>
        </mxCell>
        <mxCell id="rFN4JdDNjN4XjkR0yoPJ-25" value="op[7:5]" style="text;html=1;align=center;verticalAlign=middle;whiteSpace=wrap;rounded=0;fontSize=20;" parent="1" vertex="1">
          <mxGeometry x="-46" y="729" width="60" height="30" as="geometry" />
        </mxCell>
        <mxCell id="rFN4JdDNjN4XjkR0yoPJ-32" value="" style="shadow=0;dashed=0;align=center;html=1;strokeWidth=3;shape=mxgraph.electrical.abstract.mux2;whiteSpace=wrap;" parent="1" vertex="1">
          <mxGeometry x="81" y="774" width="48" height="112" as="geometry" />
        </mxCell>
        <mxCell id="rFN4JdDNjN4XjkR0yoPJ-35" value="" style="endArrow=classic;html=1;rounded=0;fontSize=12;startSize=8;endSize=8;strokeWidth=3;entryX=0;entryY=0.2058011049723757;entryDx=0;entryDy=3;entryPerimeter=0;edgeStyle=orthogonalEdgeStyle;" parent="1" target="rFN4JdDNjN4XjkR0yoPJ-32" edge="1">
          <mxGeometry width="50" height="50" relative="1" as="geometry">
            <mxPoint x="-1" y="764" as="sourcePoint" />
            <mxPoint x="-1" y="817" as="targetPoint" />
            <Array as="points">
              <mxPoint x="-1" y="800" />
            </Array>
          </mxGeometry>
        </mxCell>
        <mxCell id="rFN4JdDNjN4XjkR0yoPJ-40" value="" style="endArrow=classic;html=1;rounded=0;fontSize=12;startSize=8;endSize=8;curved=1;" parent="1" edge="1">
          <mxGeometry width="50" height="50" relative="1" as="geometry">
            <mxPoint x="132" y="825" as="sourcePoint" />
            <mxPoint x="138" y="825" as="targetPoint" />
          </mxGeometry>
        </mxCell>
        <mxCell id="rFN4JdDNjN4XjkR0yoPJ-41" value="" style="endArrow=none;html=1;rounded=0;fontSize=12;startSize=8;endSize=8;entryX=0.2619047619047619;entryY=1;entryDx=10;entryDy=0;entryPerimeter=0;edgeStyle=orthogonalEdgeStyle;strokeColor=#ff1100;strokeWidth=1;" parent="1" target="rFN4JdDNjN4XjkR0yoPJ-32" edge="1">
          <mxGeometry width="50" height="50" relative="1" as="geometry">
            <mxPoint x="117" y="336" as="sourcePoint" />
            <mxPoint x="167" y="286" as="targetPoint" />
            <Array as="points">
              <mxPoint x="117" y="307" />
              <mxPoint x="-177" y="307" />
              <mxPoint x="-177" y="886" />
            </Array>
          </mxGeometry>
        </mxCell>
        <mxCell id="rFN4JdDNjN4XjkR0yoPJ-42" value="" style="endArrow=classic;html=1;rounded=0;fontSize=12;startSize=8;endSize=8;curved=1;strokeWidth=2;" parent="1" edge="1">
          <mxGeometry width="50" height="50" relative="1" as="geometry">
            <mxPoint x="-122" y="850" as="sourcePoint" />
            <mxPoint x="90" y="850" as="targetPoint" />
          </mxGeometry>
        </mxCell>
        <mxCell id="rFN4JdDNjN4XjkR0yoPJ-43" value="op[4:2]" style="text;html=1;align=center;verticalAlign=middle;whiteSpace=wrap;rounded=0;fontSize=20;" parent="1" vertex="1">
          <mxGeometry x="-46" y="820" width="60" height="30" as="geometry" />
        </mxCell>
        <mxCell id="rFN4JdDNjN4XjkR0yoPJ-45" value="mux" style="text;html=1;align=center;verticalAlign=middle;whiteSpace=wrap;rounded=0;fontSize=11;" parent="1" vertex="1">
          <mxGeometry x="94" y="812" width="22" height="23" as="geometry" />
        </mxCell>
        <mxCell id="rFN4JdDNjN4XjkR0yoPJ-46" value="" style="ellipse;shape=cloud;whiteSpace=wrap;html=1;fontColor=#FF1C1C;strokeColor=#FF0000;strokeWidth=1;" parent="1" vertex="1">
          <mxGeometry x="-6" y="323" width="308" height="194" as="geometry" />
        </mxCell>
        <mxCell id="rFN4JdDNjN4XjkR0yoPJ-47" value="&lt;b style=&quot;font-size: 29px;&quot;&gt;control&lt;/b&gt;" style="text;html=1;align=center;verticalAlign=middle;whiteSpace=wrap;rounded=0;fontSize=29;fontColor=#FF0808;" parent="1" vertex="1">
          <mxGeometry x="118" y="406.5" width="60" height="27" as="geometry" />
        </mxCell>
        <mxCell id="3E7eyOwTPvob0F8doDhA-3" value="&lt;i&gt;inputs&lt;/i&gt;" style="text;html=1;align=center;verticalAlign=middle;whiteSpace=wrap;rounded=0;fontSize=16;fontColor=#00CC00;" parent="1" vertex="1">
          <mxGeometry x="156" y="646" width="60" height="30" as="geometry" />
        </mxCell>
        <mxCell id="3E7eyOwTPvob0F8doDhA-5" value="&lt;i&gt;outputs&lt;/i&gt;" style="text;html=1;align=center;verticalAlign=middle;whiteSpace=wrap;rounded=0;fontSize=16;fontColor=#00CC00;" parent="1" vertex="1">
          <mxGeometry x="333" y="646" width="60" height="30" as="geometry" />
        </mxCell>
        <mxCell id="3E7eyOwTPvob0F8doDhA-17" value="" style="endArrow=classic;html=1;rounded=0;fontSize=12;startSize=8;endSize=8;curved=1;strokeWidth=3;" parent="1" edge="1">
          <mxGeometry width="50" height="50" relative="1" as="geometry">
            <mxPoint x="396" y="720" as="sourcePoint" />
            <mxPoint x="613" y="720" as="targetPoint" />
          </mxGeometry>
        </mxCell>
        <mxCell id="3E7eyOwTPvob0F8doDhA-20" value="" style="endArrow=classic;html=1;rounded=0;fontSize=12;startSize=8;endSize=8;curved=1;strokeWidth=3;entryX=0;entryY=0.2142857142857143;entryDx=0;entryDy=3;entryPerimeter=0;exitX=1;exitY=0.5;exitDx=0;exitDy=0;" parent="1" edge="1" target="3E7eyOwTPvob0F8doDhA-19" source="3E7eyOwTPvob0F8doDhA-12">
          <mxGeometry width="50" height="50" relative="1" as="geometry">
            <mxPoint x="396" y="770.97" as="sourcePoint" />
            <mxPoint x="548" y="771" as="targetPoint" />
          </mxGeometry>
        </mxCell>
        <mxCell id="3E7eyOwTPvob0F8doDhA-21" value="" style="endArrow=none;html=1;rounded=0;fontSize=12;startSize=8;endSize=8;edgeStyle=orthogonalEdgeStyle;entryX=0.29166666666666663;entryY=1;entryDx=10;entryDy=0;entryPerimeter=0;strokeColor=#FF2D03;" parent="1" target="3E7eyOwTPvob0F8doDhA-19" edge="1">
          <mxGeometry width="50" height="50" relative="1" as="geometry">
            <mxPoint x="291" y="537" as="sourcePoint" />
            <mxPoint x="448" y="859.0000000000002" as="targetPoint" />
            <Array as="points">
              <mxPoint x="291" y="537" />
              <mxPoint x="423" y="537" />
              <mxPoint x="423" y="866" />
              <mxPoint x="490" y="866" />
            </Array>
          </mxGeometry>
        </mxCell>
        <mxCell id="3E7eyOwTPvob0F8doDhA-23" value="&lt;font color=&quot;#ff0000&quot;&gt;ALUSrc&lt;/font&gt;" style="text;html=1;align=center;verticalAlign=middle;whiteSpace=wrap;rounded=0;fontSize=16;" parent="1" vertex="1">
          <mxGeometry x="280" y="511" width="60" height="30" as="geometry" />
        </mxCell>
        <mxCell id="3E7eyOwTPvob0F8doDhA-24" value="" style="ellipse;whiteSpace=wrap;html=1;" parent="1" vertex="1">
          <mxGeometry x="225" y="976" width="92" height="117" as="geometry" />
        </mxCell>
        <mxCell id="3E7eyOwTPvob0F8doDhA-25" value="Sign Extend" style="text;html=1;align=center;verticalAlign=middle;whiteSpace=wrap;rounded=0;fontSize=16;" parent="1" vertex="1">
          <mxGeometry x="241" y="1019.5" width="60" height="30" as="geometry" />
        </mxCell>
        <mxCell id="muOvpEpb0NtmlUYYNEdW-38" style="edgeStyle=none;rounded=0;orthogonalLoop=1;jettySize=auto;html=1;exitX=1;exitY=0.5;exitDx=0;exitDy=0;" edge="1" parent="1" source="muOvpEpb0NtmlUYYNEdW-1">
          <mxGeometry relative="1" as="geometry">
            <mxPoint x="-117.42857142857133" y="806.5714285714287" as="targetPoint" />
          </mxGeometry>
        </mxCell>
        <mxCell id="muOvpEpb0NtmlUYYNEdW-8" value="" style="whiteSpace=wrap;html=1;aspect=fixed;strokeWidth=3;" vertex="1" parent="1">
          <mxGeometry x="943" y="715" width="257" height="257" as="geometry" />
        </mxCell>
        <mxCell id="muOvpEpb0NtmlUYYNEdW-9" value="Address" style="text;html=1;align=center;verticalAlign=middle;whiteSpace=wrap;rounded=0;fontSize=16;" vertex="1" parent="1">
          <mxGeometry x="934" y="762" width="100" height="39" as="geometry" />
        </mxCell>
        <mxCell id="muOvpEpb0NtmlUYYNEdW-10" value="&lt;b&gt;data memory&lt;/b&gt;" style="text;html=1;align=center;verticalAlign=middle;whiteSpace=wrap;rounded=0;fontSize=20;" vertex="1" parent="1">
          <mxGeometry x="1016.5" y="824.5" width="110" height="30" as="geometry" />
        </mxCell>
        <mxCell id="muOvpEpb0NtmlUYYNEdW-13" value="" style="group" vertex="1" connectable="0" parent="1">
          <mxGeometry x="614" y="680" width="106" height="194" as="geometry" />
        </mxCell>
        <mxCell id="3E7eyOwTPvob0F8doDhA-14" value="" style="verticalLabelPosition=middle;verticalAlign=middle;html=1;shape=trapezoid;perimeter=trapezoidPerimeter;whiteSpace=wrap;size=0.23;arcSize=10;flipV=1;labelPosition=center;align=center;direction=south;" parent="muOvpEpb0NtmlUYYNEdW-13" vertex="1">
          <mxGeometry width="106" height="194" as="geometry" />
        </mxCell>
        <mxCell id="3E7eyOwTPvob0F8doDhA-15" value="&lt;b style=&quot;font-size: 20px;&quot;&gt;ALU&lt;/b&gt;" style="text;html=1;align=center;verticalAlign=middle;whiteSpace=wrap;rounded=0;fontSize=20;" parent="muOvpEpb0NtmlUYYNEdW-13" vertex="1">
          <mxGeometry x="23" y="82" width="60" height="30" as="geometry" />
        </mxCell>
        <mxCell id="muOvpEpb0NtmlUYYNEdW-14" value="" style="group" vertex="1" connectable="0" parent="1">
          <mxGeometry x="551" y="753.5" width="48" height="112" as="geometry" />
        </mxCell>
        <mxCell id="3E7eyOwTPvob0F8doDhA-19" value="" style="shadow=0;dashed=0;align=center;html=1;strokeWidth=3;shape=mxgraph.electrical.abstract.mux2;whiteSpace=wrap;" parent="muOvpEpb0NtmlUYYNEdW-14" vertex="1">
          <mxGeometry width="48" height="112" as="geometry" />
        </mxCell>
        <mxCell id="3E7eyOwTPvob0F8doDhA-26" value="mux" style="text;html=1;align=center;verticalAlign=middle;whiteSpace=wrap;rounded=0;fontSize=11;" parent="muOvpEpb0NtmlUYYNEdW-14" vertex="1">
          <mxGeometry x="13" y="40" width="22" height="23" as="geometry" />
        </mxCell>
        <mxCell id="muOvpEpb0NtmlUYYNEdW-16" value="" style="rounded=0;whiteSpace=wrap;html=1;" vertex="1" parent="1">
          <mxGeometry x="853" y="184" width="32" height="1125" as="geometry" />
        </mxCell>
        <mxCell id="muOvpEpb0NtmlUYYNEdW-17" value="" style="rounded=0;whiteSpace=wrap;html=1;" vertex="1" parent="1">
          <mxGeometry x="1263" y="181.5" width="32" height="1125" as="geometry" />
        </mxCell>
        <mxCell id="muOvpEpb0NtmlUYYNEdW-19" value="write data" style="text;html=1;align=center;verticalAlign=middle;whiteSpace=wrap;rounded=0;fontSize=16;" vertex="1" parent="1">
          <mxGeometry x="946" y="914" width="100" height="39" as="geometry" />
        </mxCell>
        <mxCell id="muOvpEpb0NtmlUYYNEdW-20" value="read data" style="text;html=1;align=center;verticalAlign=middle;whiteSpace=wrap;rounded=0;fontSize=16;" vertex="1" parent="1">
          <mxGeometry x="1092" y="771.5" width="100" height="39" as="geometry" />
        </mxCell>
        <mxCell id="muOvpEpb0NtmlUYYNEdW-21" value="" style="group" vertex="1" connectable="0" parent="1">
          <mxGeometry x="1338" y="762" width="48" height="112" as="geometry" />
        </mxCell>
        <mxCell id="muOvpEpb0NtmlUYYNEdW-22" value="" style="shadow=0;dashed=0;align=center;html=1;strokeWidth=3;shape=mxgraph.electrical.abstract.mux2;whiteSpace=wrap;" vertex="1" parent="muOvpEpb0NtmlUYYNEdW-21">
          <mxGeometry width="48" height="112" as="geometry" />
        </mxCell>
        <mxCell id="muOvpEpb0NtmlUYYNEdW-23" value="mux" style="text;html=1;align=center;verticalAlign=middle;whiteSpace=wrap;rounded=0;fontSize=11;" vertex="1" parent="muOvpEpb0NtmlUYYNEdW-21">
          <mxGeometry x="13" y="40" width="22" height="23" as="geometry" />
        </mxCell>
        <mxCell id="muOvpEpb0NtmlUYYNEdW-25" value="" style="endArrow=classic;html=1;rounded=0;fontSize=12;startSize=8;endSize=8;curved=1;strokeWidth=3;exitX=0.997;exitY=0.29;exitDx=0;exitDy=0;exitPerimeter=0;entryX=0;entryY=0.21428571428571427;entryDx=0;entryDy=3;entryPerimeter=0;" edge="1" parent="1" source="muOvpEpb0NtmlUYYNEdW-8" target="muOvpEpb0NtmlUYYNEdW-22">
          <mxGeometry width="50" height="50" relative="1" as="geometry">
            <mxPoint x="1205" y="786" as="sourcePoint" />
            <mxPoint x="1331" y="790" as="targetPoint" />
          </mxGeometry>
        </mxCell>
        <mxCell id="muOvpEpb0NtmlUYYNEdW-27" value="" style="group" vertex="1" connectable="0" parent="1">
          <mxGeometry x="139" y="681" width="257" height="257" as="geometry" />
        </mxCell>
        <mxCell id="rFN4JdDNjN4XjkR0yoPJ-5" value="" style="whiteSpace=wrap;html=1;aspect=fixed;strokeWidth=3;" parent="muOvpEpb0NtmlUYYNEdW-27" vertex="1">
          <mxGeometry width="257" height="257" as="geometry" />
        </mxCell>
        <mxCell id="rFN4JdDNjN4XjkR0yoPJ-6" value="read select 1 (rs)" style="text;html=1;align=center;verticalAlign=middle;whiteSpace=wrap;rounded=0;fontSize=16;" parent="muOvpEpb0NtmlUYYNEdW-27" vertex="1">
          <mxGeometry x="2" y="14" width="100" height="39" as="geometry" />
        </mxCell>
        <mxCell id="rFN4JdDNjN4XjkR0yoPJ-7" value="read select 2 (rt)" style="text;html=1;align=center;verticalAlign=middle;whiteSpace=wrap;rounded=0;fontSize=16;" parent="muOvpEpb0NtmlUYYNEdW-27" vertex="1">
          <mxGeometry x="3.5" y="71" width="97.5" height="39" as="geometry" />
        </mxCell>
        <mxCell id="rFN4JdDNjN4XjkR0yoPJ-8" value="write select (rd)" style="text;html=1;align=center;verticalAlign=middle;whiteSpace=wrap;rounded=0;fontSize=16;" parent="muOvpEpb0NtmlUYYNEdW-27" vertex="1">
          <mxGeometry x="7.5" y="129.5" width="89.5" height="39" as="geometry" />
        </mxCell>
        <mxCell id="rFN4JdDNjN4XjkR0yoPJ-10" value="write data" style="text;html=1;align=center;verticalAlign=middle;whiteSpace=wrap;rounded=0;fontSize=16;" parent="muOvpEpb0NtmlUYYNEdW-27" vertex="1">
          <mxGeometry x="13" y="205" width="73" height="32" as="geometry" />
        </mxCell>
        <mxCell id="rFN4JdDNjN4XjkR0yoPJ-44" value="&lt;b&gt;register file&lt;/b&gt;" style="text;html=1;align=center;verticalAlign=middle;whiteSpace=wrap;rounded=0;fontSize=20;" parent="muOvpEpb0NtmlUYYNEdW-27" vertex="1">
          <mxGeometry x="130" y="219" width="110" height="30" as="geometry" />
        </mxCell>
        <mxCell id="3E7eyOwTPvob0F8doDhA-7" value="rs data" style="text;html=1;align=center;verticalAlign=middle;whiteSpace=wrap;rounded=0;fontSize=16;" parent="muOvpEpb0NtmlUYYNEdW-27" vertex="1">
          <mxGeometry x="149" y="14" width="100" height="39" as="geometry" />
        </mxCell>
        <mxCell id="3E7eyOwTPvob0F8doDhA-12" value="rt data" style="text;html=1;align=center;verticalAlign=middle;whiteSpace=wrap;rounded=0;fontSize=16;" parent="muOvpEpb0NtmlUYYNEdW-27" vertex="1">
          <mxGeometry x="157" y="81" width="100" height="39" as="geometry" />
        </mxCell>
        <mxCell id="muOvpEpb0NtmlUYYNEdW-289" style="edgeStyle=none;rounded=0;orthogonalLoop=1;jettySize=auto;html=1;fontFamily=Helvetica;fontSize=12;fontColor=default;entryX=0.749;entryY=1.018;entryDx=0;entryDy=0;entryPerimeter=0;" edge="1" parent="1" target="muOvpEpb0NtmlUYYNEdW-40">
          <mxGeometry relative="1" as="geometry">
            <mxPoint x="-551" y="382" as="targetPoint" />
            <mxPoint x="-634" y="709" as="sourcePoint" />
            <Array as="points">
              <mxPoint x="-634" y="385" />
            </Array>
          </mxGeometry>
        </mxCell>
        <mxCell id="muOvpEpb0NtmlUYYNEdW-32" value="PC" style="rounded=0;whiteSpace=wrap;html=1;strokeWidth=3;" vertex="1" parent="1">
          <mxGeometry x="-702" y="668" width="47" height="82.5" as="geometry" />
        </mxCell>
        <mxCell id="muOvpEpb0NtmlUYYNEdW-34" style="edgeStyle=orthogonalEdgeStyle;rounded=0;orthogonalLoop=1;jettySize=auto;html=1;exitX=1;exitY=0.5;exitDx=0;exitDy=0;" edge="1" parent="1">
          <mxGeometry relative="1" as="geometry">
            <mxPoint x="-550" y="710" as="targetPoint" />
            <mxPoint x="-655" y="709.29" as="sourcePoint" />
          </mxGeometry>
        </mxCell>
        <mxCell id="muOvpEpb0NtmlUYYNEdW-37" value="" style="endArrow=none;html=3;rounded=0;strokeWidth=3;" edge="1" parent="1">
          <mxGeometry width="50" height="50" relative="1" as="geometry">
            <mxPoint x="-120" y="850" as="sourcePoint" />
            <mxPoint x="-120" y="458.5" as="targetPoint" />
          </mxGeometry>
        </mxCell>
        <mxCell id="muOvpEpb0NtmlUYYNEdW-39" style="edgeStyle=none;rounded=0;orthogonalLoop=1;jettySize=auto;html=1;exitX=0.5;exitY=0;exitDx=0;exitDy=0;entryX=0;entryY=0.25;entryDx=0;entryDy=0;" edge="1" parent="1" source="3E7eyOwTPvob0F8doDhA-14" target="muOvpEpb0NtmlUYYNEdW-8">
          <mxGeometry relative="1" as="geometry" />
        </mxCell>
        <mxCell id="muOvpEpb0NtmlUYYNEdW-40" value="&lt;font style=&quot;font-size: 24px;&quot;&gt;&lt;b&gt;Add&lt;/b&gt;&lt;/font&gt;" style="verticalLabelPosition=middle;verticalAlign=middle;html=1;shape=trapezoid;perimeter=trapezoidPerimeter;whiteSpace=wrap;size=0.23;arcSize=10;flipV=1;labelPosition=center;align=center;direction=south;" vertex="1" parent="1">
          <mxGeometry x="-552" y="350" width="74" height="140" as="geometry" />
        </mxCell>
        <mxCell id="muOvpEpb0NtmlUYYNEdW-154" value="" style="shape=table;startSize=0;container=1;collapsible=0;childLayout=tableLayout;rounded=0;strokeColor=default;align=center;verticalAlign=middle;fontFamily=Helvetica;fontSize=12;fontColor=default;fillColor=default;" vertex="1" parent="1">
          <mxGeometry x="-991" y="1522" width="709" height="638.5" as="geometry" />
        </mxCell>
        <mxCell id="muOvpEpb0NtmlUYYNEdW-155" value="" style="shape=tableRow;horizontal=0;startSize=0;swimlaneHead=0;swimlaneBody=0;strokeColor=inherit;top=0;left=0;bottom=0;right=0;collapsible=0;dropTarget=0;fillColor=none;points=[[0,0.5],[1,0.5]];portConstraint=eastwest;rounded=0;align=center;verticalAlign=middle;fontFamily=Helvetica;fontSize=12;fontColor=default;" vertex="1" parent="muOvpEpb0NtmlUYYNEdW-154">
          <mxGeometry width="709" height="40" as="geometry" />
        </mxCell>
        <mxCell id="muOvpEpb0NtmlUYYNEdW-156" value="input or output" style="shape=partialRectangle;html=1;whiteSpace=wrap;connectable=0;strokeColor=inherit;overflow=hidden;fillColor=none;top=0;left=0;bottom=0;right=0;pointerEvents=1;rounded=0;align=center;verticalAlign=middle;fontFamily=Helvetica;fontSize=12;fontColor=default;" vertex="1" parent="muOvpEpb0NtmlUYYNEdW-155">
          <mxGeometry width="118" height="40" as="geometry">
            <mxRectangle width="118" height="40" as="alternateBounds" />
          </mxGeometry>
        </mxCell>
        <mxCell id="muOvpEpb0NtmlUYYNEdW-157" value="signal name" style="shape=partialRectangle;html=1;whiteSpace=wrap;connectable=0;strokeColor=inherit;overflow=hidden;fillColor=none;top=0;left=0;bottom=0;right=0;pointerEvents=1;rounded=0;align=center;verticalAlign=middle;fontFamily=Helvetica;fontSize=12;fontColor=default;" vertex="1" parent="muOvpEpb0NtmlUYYNEdW-155">
          <mxGeometry x="118" width="118" height="40" as="geometry">
            <mxRectangle width="118" height="40" as="alternateBounds" />
          </mxGeometry>
        </mxCell>
        <mxCell id="muOvpEpb0NtmlUYYNEdW-158" value="R-format" style="shape=partialRectangle;html=1;whiteSpace=wrap;connectable=0;strokeColor=inherit;overflow=hidden;fillColor=none;top=0;left=0;bottom=0;right=0;pointerEvents=1;rounded=0;align=center;verticalAlign=middle;fontFamily=Helvetica;fontSize=12;fontColor=default;" vertex="1" parent="muOvpEpb0NtmlUYYNEdW-155">
          <mxGeometry x="236" width="119" height="40" as="geometry">
            <mxRectangle width="119" height="40" as="alternateBounds" />
          </mxGeometry>
        </mxCell>
        <mxCell id="muOvpEpb0NtmlUYYNEdW-159" value="lw" style="shape=partialRectangle;html=1;whiteSpace=wrap;connectable=0;strokeColor=inherit;overflow=hidden;fillColor=none;top=0;left=0;bottom=0;right=0;pointerEvents=1;rounded=0;align=center;verticalAlign=middle;fontFamily=Helvetica;fontSize=12;fontColor=default;" vertex="1" parent="muOvpEpb0NtmlUYYNEdW-155">
          <mxGeometry x="355" width="118" height="40" as="geometry">
            <mxRectangle width="118" height="40" as="alternateBounds" />
          </mxGeometry>
        </mxCell>
        <mxCell id="muOvpEpb0NtmlUYYNEdW-160" value="sw" style="shape=partialRectangle;html=1;whiteSpace=wrap;connectable=0;strokeColor=inherit;overflow=hidden;fillColor=none;top=0;left=0;bottom=0;right=0;pointerEvents=1;rounded=0;align=center;verticalAlign=middle;fontFamily=Helvetica;fontSize=12;fontColor=default;" vertex="1" parent="muOvpEpb0NtmlUYYNEdW-155">
          <mxGeometry x="473" width="118" height="40" as="geometry">
            <mxRectangle width="118" height="40" as="alternateBounds" />
          </mxGeometry>
        </mxCell>
        <mxCell id="muOvpEpb0NtmlUYYNEdW-161" value="beq" style="shape=partialRectangle;html=1;whiteSpace=wrap;connectable=0;strokeColor=inherit;overflow=hidden;fillColor=none;top=0;left=0;bottom=0;right=0;pointerEvents=1;rounded=0;align=center;verticalAlign=middle;fontFamily=Helvetica;fontSize=12;fontColor=default;" vertex="1" parent="muOvpEpb0NtmlUYYNEdW-155">
          <mxGeometry x="591" width="118" height="40" as="geometry">
            <mxRectangle width="118" height="40" as="alternateBounds" />
          </mxGeometry>
        </mxCell>
        <mxCell id="muOvpEpb0NtmlUYYNEdW-162" value="" style="shape=tableRow;horizontal=0;startSize=0;swimlaneHead=0;swimlaneBody=0;strokeColor=inherit;top=0;left=0;bottom=0;right=0;collapsible=0;dropTarget=0;fillColor=none;points=[[0,0.5],[1,0.5]];portConstraint=eastwest;rounded=0;align=center;verticalAlign=middle;fontFamily=Helvetica;fontSize=12;fontColor=default;" vertex="1" parent="muOvpEpb0NtmlUYYNEdW-154">
          <mxGeometry y="40" width="709" height="40" as="geometry" />
        </mxCell>
        <mxCell id="muOvpEpb0NtmlUYYNEdW-163" value="" style="shape=partialRectangle;html=1;whiteSpace=wrap;connectable=0;strokeColor=inherit;overflow=hidden;fillColor=none;top=0;left=0;bottom=0;right=0;pointerEvents=1;rounded=0;align=center;verticalAlign=middle;fontFamily=Helvetica;fontSize=12;fontColor=default;" vertex="1" parent="muOvpEpb0NtmlUYYNEdW-162">
          <mxGeometry width="118" height="40" as="geometry">
            <mxRectangle width="118" height="40" as="alternateBounds" />
          </mxGeometry>
        </mxCell>
        <mxCell id="muOvpEpb0NtmlUYYNEdW-164" value="" style="shape=partialRectangle;html=1;whiteSpace=wrap;connectable=0;strokeColor=inherit;overflow=hidden;fillColor=none;top=0;left=0;bottom=0;right=0;pointerEvents=1;rounded=0;align=center;verticalAlign=middle;fontFamily=Helvetica;fontSize=12;fontColor=default;" vertex="1" parent="muOvpEpb0NtmlUYYNEdW-162">
          <mxGeometry x="118" width="118" height="40" as="geometry">
            <mxRectangle width="118" height="40" as="alternateBounds" />
          </mxGeometry>
        </mxCell>
        <mxCell id="muOvpEpb0NtmlUYYNEdW-165" value="" style="shape=partialRectangle;html=1;whiteSpace=wrap;connectable=0;strokeColor=inherit;overflow=hidden;fillColor=none;top=0;left=0;bottom=0;right=0;pointerEvents=1;rounded=0;align=center;verticalAlign=middle;fontFamily=Helvetica;fontSize=12;fontColor=default;" vertex="1" parent="muOvpEpb0NtmlUYYNEdW-162">
          <mxGeometry x="236" width="119" height="40" as="geometry">
            <mxRectangle width="119" height="40" as="alternateBounds" />
          </mxGeometry>
        </mxCell>
        <mxCell id="muOvpEpb0NtmlUYYNEdW-166" value="" style="shape=partialRectangle;html=1;whiteSpace=wrap;connectable=0;strokeColor=inherit;overflow=hidden;fillColor=none;top=0;left=0;bottom=0;right=0;pointerEvents=1;rounded=0;align=center;verticalAlign=middle;fontFamily=Helvetica;fontSize=12;fontColor=default;" vertex="1" parent="muOvpEpb0NtmlUYYNEdW-162">
          <mxGeometry x="355" width="118" height="40" as="geometry">
            <mxRectangle width="118" height="40" as="alternateBounds" />
          </mxGeometry>
        </mxCell>
        <mxCell id="muOvpEpb0NtmlUYYNEdW-167" value="" style="shape=partialRectangle;html=1;whiteSpace=wrap;connectable=0;strokeColor=inherit;overflow=hidden;fillColor=none;top=0;left=0;bottom=0;right=0;pointerEvents=1;rounded=0;align=center;verticalAlign=middle;fontFamily=Helvetica;fontSize=12;fontColor=default;" vertex="1" parent="muOvpEpb0NtmlUYYNEdW-162">
          <mxGeometry x="473" width="118" height="40" as="geometry">
            <mxRectangle width="118" height="40" as="alternateBounds" />
          </mxGeometry>
        </mxCell>
        <mxCell id="muOvpEpb0NtmlUYYNEdW-168" value="" style="shape=partialRectangle;html=1;whiteSpace=wrap;connectable=0;strokeColor=inherit;overflow=hidden;fillColor=none;top=0;left=0;bottom=0;right=0;pointerEvents=1;rounded=0;align=center;verticalAlign=middle;fontFamily=Helvetica;fontSize=12;fontColor=default;" vertex="1" parent="muOvpEpb0NtmlUYYNEdW-162">
          <mxGeometry x="591" width="118" height="40" as="geometry">
            <mxRectangle width="118" height="40" as="alternateBounds" />
          </mxGeometry>
        </mxCell>
        <mxCell id="muOvpEpb0NtmlUYYNEdW-169" value="" style="shape=tableRow;horizontal=0;startSize=0;swimlaneHead=0;swimlaneBody=0;strokeColor=inherit;top=0;left=0;bottom=0;right=0;collapsible=0;dropTarget=0;fillColor=none;points=[[0,0.5],[1,0.5]];portConstraint=eastwest;rounded=0;align=center;verticalAlign=middle;fontFamily=Helvetica;fontSize=12;fontColor=default;" vertex="1" parent="muOvpEpb0NtmlUYYNEdW-154">
          <mxGeometry y="80" width="709" height="40" as="geometry" />
        </mxCell>
        <mxCell id="muOvpEpb0NtmlUYYNEdW-170" value="" style="shape=partialRectangle;html=1;whiteSpace=wrap;connectable=0;strokeColor=inherit;overflow=hidden;fillColor=none;top=0;left=0;bottom=0;right=0;pointerEvents=1;rounded=0;align=center;verticalAlign=middle;fontFamily=Helvetica;fontSize=12;fontColor=default;" vertex="1" parent="muOvpEpb0NtmlUYYNEdW-169">
          <mxGeometry width="118" height="40" as="geometry">
            <mxRectangle width="118" height="40" as="alternateBounds" />
          </mxGeometry>
        </mxCell>
        <mxCell id="muOvpEpb0NtmlUYYNEdW-171" value="" style="shape=partialRectangle;html=1;whiteSpace=wrap;connectable=0;strokeColor=inherit;overflow=hidden;fillColor=none;top=0;left=0;bottom=0;right=0;pointerEvents=1;rounded=0;align=center;verticalAlign=middle;fontFamily=Helvetica;fontSize=12;fontColor=default;" vertex="1" parent="muOvpEpb0NtmlUYYNEdW-169">
          <mxGeometry x="118" width="118" height="40" as="geometry">
            <mxRectangle width="118" height="40" as="alternateBounds" />
          </mxGeometry>
        </mxCell>
        <mxCell id="muOvpEpb0NtmlUYYNEdW-172" value="" style="shape=partialRectangle;html=1;whiteSpace=wrap;connectable=0;strokeColor=inherit;overflow=hidden;fillColor=none;top=0;left=0;bottom=0;right=0;pointerEvents=1;rounded=0;align=center;verticalAlign=middle;fontFamily=Helvetica;fontSize=12;fontColor=default;" vertex="1" parent="muOvpEpb0NtmlUYYNEdW-169">
          <mxGeometry x="236" width="119" height="40" as="geometry">
            <mxRectangle width="119" height="40" as="alternateBounds" />
          </mxGeometry>
        </mxCell>
        <mxCell id="muOvpEpb0NtmlUYYNEdW-173" value="" style="shape=partialRectangle;html=1;whiteSpace=wrap;connectable=0;strokeColor=inherit;overflow=hidden;fillColor=none;top=0;left=0;bottom=0;right=0;pointerEvents=1;rounded=0;align=center;verticalAlign=middle;fontFamily=Helvetica;fontSize=12;fontColor=default;" vertex="1" parent="muOvpEpb0NtmlUYYNEdW-169">
          <mxGeometry x="355" width="118" height="40" as="geometry">
            <mxRectangle width="118" height="40" as="alternateBounds" />
          </mxGeometry>
        </mxCell>
        <mxCell id="muOvpEpb0NtmlUYYNEdW-174" value="" style="shape=partialRectangle;html=1;whiteSpace=wrap;connectable=0;strokeColor=inherit;overflow=hidden;fillColor=none;top=0;left=0;bottom=0;right=0;pointerEvents=1;rounded=0;align=center;verticalAlign=middle;fontFamily=Helvetica;fontSize=12;fontColor=default;" vertex="1" parent="muOvpEpb0NtmlUYYNEdW-169">
          <mxGeometry x="473" width="118" height="40" as="geometry">
            <mxRectangle width="118" height="40" as="alternateBounds" />
          </mxGeometry>
        </mxCell>
        <mxCell id="muOvpEpb0NtmlUYYNEdW-175" value="" style="shape=partialRectangle;html=1;whiteSpace=wrap;connectable=0;strokeColor=inherit;overflow=hidden;fillColor=none;top=0;left=0;bottom=0;right=0;pointerEvents=1;rounded=0;align=center;verticalAlign=middle;fontFamily=Helvetica;fontSize=12;fontColor=default;" vertex="1" parent="muOvpEpb0NtmlUYYNEdW-169">
          <mxGeometry x="591" width="118" height="40" as="geometry">
            <mxRectangle width="118" height="40" as="alternateBounds" />
          </mxGeometry>
        </mxCell>
        <mxCell id="muOvpEpb0NtmlUYYNEdW-176" value="" style="shape=tableRow;horizontal=0;startSize=0;swimlaneHead=0;swimlaneBody=0;strokeColor=inherit;top=0;left=0;bottom=0;right=0;collapsible=0;dropTarget=0;fillColor=none;points=[[0,0.5],[1,0.5]];portConstraint=eastwest;rounded=0;align=center;verticalAlign=middle;fontFamily=Helvetica;fontSize=12;fontColor=default;" vertex="1" parent="muOvpEpb0NtmlUYYNEdW-154">
          <mxGeometry y="120" width="709" height="40" as="geometry" />
        </mxCell>
        <mxCell id="muOvpEpb0NtmlUYYNEdW-177" value="" style="shape=partialRectangle;html=1;whiteSpace=wrap;connectable=0;strokeColor=inherit;overflow=hidden;fillColor=none;top=0;left=0;bottom=0;right=0;pointerEvents=1;rounded=0;align=center;verticalAlign=middle;fontFamily=Helvetica;fontSize=12;fontColor=default;" vertex="1" parent="muOvpEpb0NtmlUYYNEdW-176">
          <mxGeometry width="118" height="40" as="geometry">
            <mxRectangle width="118" height="40" as="alternateBounds" />
          </mxGeometry>
        </mxCell>
        <mxCell id="muOvpEpb0NtmlUYYNEdW-178" value="" style="shape=partialRectangle;html=1;whiteSpace=wrap;connectable=0;strokeColor=inherit;overflow=hidden;fillColor=none;top=0;left=0;bottom=0;right=0;pointerEvents=1;rounded=0;align=center;verticalAlign=middle;fontFamily=Helvetica;fontSize=12;fontColor=default;" vertex="1" parent="muOvpEpb0NtmlUYYNEdW-176">
          <mxGeometry x="118" width="118" height="40" as="geometry">
            <mxRectangle width="118" height="40" as="alternateBounds" />
          </mxGeometry>
        </mxCell>
        <mxCell id="muOvpEpb0NtmlUYYNEdW-179" value="" style="shape=partialRectangle;html=1;whiteSpace=wrap;connectable=0;strokeColor=inherit;overflow=hidden;fillColor=none;top=0;left=0;bottom=0;right=0;pointerEvents=1;rounded=0;align=center;verticalAlign=middle;fontFamily=Helvetica;fontSize=12;fontColor=default;" vertex="1" parent="muOvpEpb0NtmlUYYNEdW-176">
          <mxGeometry x="236" width="119" height="40" as="geometry">
            <mxRectangle width="119" height="40" as="alternateBounds" />
          </mxGeometry>
        </mxCell>
        <mxCell id="muOvpEpb0NtmlUYYNEdW-180" value="" style="shape=partialRectangle;html=1;whiteSpace=wrap;connectable=0;strokeColor=inherit;overflow=hidden;fillColor=none;top=0;left=0;bottom=0;right=0;pointerEvents=1;rounded=0;align=center;verticalAlign=middle;fontFamily=Helvetica;fontSize=12;fontColor=default;" vertex="1" parent="muOvpEpb0NtmlUYYNEdW-176">
          <mxGeometry x="355" width="118" height="40" as="geometry">
            <mxRectangle width="118" height="40" as="alternateBounds" />
          </mxGeometry>
        </mxCell>
        <mxCell id="muOvpEpb0NtmlUYYNEdW-181" value="" style="shape=partialRectangle;html=1;whiteSpace=wrap;connectable=0;strokeColor=inherit;overflow=hidden;fillColor=none;top=0;left=0;bottom=0;right=0;pointerEvents=1;rounded=0;align=center;verticalAlign=middle;fontFamily=Helvetica;fontSize=12;fontColor=default;" vertex="1" parent="muOvpEpb0NtmlUYYNEdW-176">
          <mxGeometry x="473" width="118" height="40" as="geometry">
            <mxRectangle width="118" height="40" as="alternateBounds" />
          </mxGeometry>
        </mxCell>
        <mxCell id="muOvpEpb0NtmlUYYNEdW-182" value="" style="shape=partialRectangle;html=1;whiteSpace=wrap;connectable=0;strokeColor=inherit;overflow=hidden;fillColor=none;top=0;left=0;bottom=0;right=0;pointerEvents=1;rounded=0;align=center;verticalAlign=middle;fontFamily=Helvetica;fontSize=12;fontColor=default;" vertex="1" parent="muOvpEpb0NtmlUYYNEdW-176">
          <mxGeometry x="591" width="118" height="40" as="geometry">
            <mxRectangle width="118" height="40" as="alternateBounds" />
          </mxGeometry>
        </mxCell>
        <mxCell id="muOvpEpb0NtmlUYYNEdW-183" value="" style="shape=tableRow;horizontal=0;startSize=0;swimlaneHead=0;swimlaneBody=0;strokeColor=inherit;top=0;left=0;bottom=0;right=0;collapsible=0;dropTarget=0;fillColor=none;points=[[0,0.5],[1,0.5]];portConstraint=eastwest;rounded=0;align=center;verticalAlign=middle;fontFamily=Helvetica;fontSize=12;fontColor=default;" vertex="1" parent="muOvpEpb0NtmlUYYNEdW-154">
          <mxGeometry y="160" width="709" height="40" as="geometry" />
        </mxCell>
        <mxCell id="muOvpEpb0NtmlUYYNEdW-184" value="" style="shape=partialRectangle;html=1;whiteSpace=wrap;connectable=0;strokeColor=inherit;overflow=hidden;fillColor=none;top=0;left=0;bottom=0;right=0;pointerEvents=1;rounded=0;align=center;verticalAlign=middle;fontFamily=Helvetica;fontSize=12;fontColor=default;" vertex="1" parent="muOvpEpb0NtmlUYYNEdW-183">
          <mxGeometry width="118" height="40" as="geometry">
            <mxRectangle width="118" height="40" as="alternateBounds" />
          </mxGeometry>
        </mxCell>
        <mxCell id="muOvpEpb0NtmlUYYNEdW-185" value="" style="shape=partialRectangle;html=1;whiteSpace=wrap;connectable=0;strokeColor=inherit;overflow=hidden;fillColor=none;top=0;left=0;bottom=0;right=0;pointerEvents=1;rounded=0;align=center;verticalAlign=middle;fontFamily=Helvetica;fontSize=12;fontColor=default;" vertex="1" parent="muOvpEpb0NtmlUYYNEdW-183">
          <mxGeometry x="118" width="118" height="40" as="geometry">
            <mxRectangle width="118" height="40" as="alternateBounds" />
          </mxGeometry>
        </mxCell>
        <mxCell id="muOvpEpb0NtmlUYYNEdW-186" value="" style="shape=partialRectangle;html=1;whiteSpace=wrap;connectable=0;strokeColor=inherit;overflow=hidden;fillColor=none;top=0;left=0;bottom=0;right=0;pointerEvents=1;rounded=0;align=center;verticalAlign=middle;fontFamily=Helvetica;fontSize=12;fontColor=default;" vertex="1" parent="muOvpEpb0NtmlUYYNEdW-183">
          <mxGeometry x="236" width="119" height="40" as="geometry">
            <mxRectangle width="119" height="40" as="alternateBounds" />
          </mxGeometry>
        </mxCell>
        <mxCell id="muOvpEpb0NtmlUYYNEdW-187" value="" style="shape=partialRectangle;html=1;whiteSpace=wrap;connectable=0;strokeColor=inherit;overflow=hidden;fillColor=none;top=0;left=0;bottom=0;right=0;pointerEvents=1;rounded=0;align=center;verticalAlign=middle;fontFamily=Helvetica;fontSize=12;fontColor=default;" vertex="1" parent="muOvpEpb0NtmlUYYNEdW-183">
          <mxGeometry x="355" width="118" height="40" as="geometry">
            <mxRectangle width="118" height="40" as="alternateBounds" />
          </mxGeometry>
        </mxCell>
        <mxCell id="muOvpEpb0NtmlUYYNEdW-188" value="" style="shape=partialRectangle;html=1;whiteSpace=wrap;connectable=0;strokeColor=inherit;overflow=hidden;fillColor=none;top=0;left=0;bottom=0;right=0;pointerEvents=1;rounded=0;align=center;verticalAlign=middle;fontFamily=Helvetica;fontSize=12;fontColor=default;" vertex="1" parent="muOvpEpb0NtmlUYYNEdW-183">
          <mxGeometry x="473" width="118" height="40" as="geometry">
            <mxRectangle width="118" height="40" as="alternateBounds" />
          </mxGeometry>
        </mxCell>
        <mxCell id="muOvpEpb0NtmlUYYNEdW-189" value="" style="shape=partialRectangle;html=1;whiteSpace=wrap;connectable=0;strokeColor=inherit;overflow=hidden;fillColor=none;top=0;left=0;bottom=0;right=0;pointerEvents=1;rounded=0;align=center;verticalAlign=middle;fontFamily=Helvetica;fontSize=12;fontColor=default;" vertex="1" parent="muOvpEpb0NtmlUYYNEdW-183">
          <mxGeometry x="591" width="118" height="40" as="geometry">
            <mxRectangle width="118" height="40" as="alternateBounds" />
          </mxGeometry>
        </mxCell>
        <mxCell id="muOvpEpb0NtmlUYYNEdW-190" value="" style="shape=tableRow;horizontal=0;startSize=0;swimlaneHead=0;swimlaneBody=0;strokeColor=inherit;top=0;left=0;bottom=0;right=0;collapsible=0;dropTarget=0;fillColor=none;points=[[0,0.5],[1,0.5]];portConstraint=eastwest;rounded=0;align=center;verticalAlign=middle;fontFamily=Helvetica;fontSize=12;fontColor=default;" vertex="1" parent="muOvpEpb0NtmlUYYNEdW-154">
          <mxGeometry y="200" width="709" height="40" as="geometry" />
        </mxCell>
        <mxCell id="muOvpEpb0NtmlUYYNEdW-191" value="" style="shape=partialRectangle;html=1;whiteSpace=wrap;connectable=0;strokeColor=inherit;overflow=hidden;fillColor=none;top=0;left=0;bottom=0;right=0;pointerEvents=1;rounded=0;align=center;verticalAlign=middle;fontFamily=Helvetica;fontSize=12;fontColor=default;" vertex="1" parent="muOvpEpb0NtmlUYYNEdW-190">
          <mxGeometry width="118" height="40" as="geometry">
            <mxRectangle width="118" height="40" as="alternateBounds" />
          </mxGeometry>
        </mxCell>
        <mxCell id="muOvpEpb0NtmlUYYNEdW-192" value="" style="shape=partialRectangle;html=1;whiteSpace=wrap;connectable=0;strokeColor=inherit;overflow=hidden;fillColor=none;top=0;left=0;bottom=0;right=0;pointerEvents=1;rounded=0;align=center;verticalAlign=middle;fontFamily=Helvetica;fontSize=12;fontColor=default;" vertex="1" parent="muOvpEpb0NtmlUYYNEdW-190">
          <mxGeometry x="118" width="118" height="40" as="geometry">
            <mxRectangle width="118" height="40" as="alternateBounds" />
          </mxGeometry>
        </mxCell>
        <mxCell id="muOvpEpb0NtmlUYYNEdW-193" value="" style="shape=partialRectangle;html=1;whiteSpace=wrap;connectable=0;strokeColor=inherit;overflow=hidden;fillColor=none;top=0;left=0;bottom=0;right=0;pointerEvents=1;rounded=0;align=center;verticalAlign=middle;fontFamily=Helvetica;fontSize=12;fontColor=default;" vertex="1" parent="muOvpEpb0NtmlUYYNEdW-190">
          <mxGeometry x="236" width="119" height="40" as="geometry">
            <mxRectangle width="119" height="40" as="alternateBounds" />
          </mxGeometry>
        </mxCell>
        <mxCell id="muOvpEpb0NtmlUYYNEdW-194" value="" style="shape=partialRectangle;html=1;whiteSpace=wrap;connectable=0;strokeColor=inherit;overflow=hidden;fillColor=none;top=0;left=0;bottom=0;right=0;pointerEvents=1;rounded=0;align=center;verticalAlign=middle;fontFamily=Helvetica;fontSize=12;fontColor=default;" vertex="1" parent="muOvpEpb0NtmlUYYNEdW-190">
          <mxGeometry x="355" width="118" height="40" as="geometry">
            <mxRectangle width="118" height="40" as="alternateBounds" />
          </mxGeometry>
        </mxCell>
        <mxCell id="muOvpEpb0NtmlUYYNEdW-195" value="" style="shape=partialRectangle;html=1;whiteSpace=wrap;connectable=0;strokeColor=inherit;overflow=hidden;fillColor=none;top=0;left=0;bottom=0;right=0;pointerEvents=1;rounded=0;align=center;verticalAlign=middle;fontFamily=Helvetica;fontSize=12;fontColor=default;" vertex="1" parent="muOvpEpb0NtmlUYYNEdW-190">
          <mxGeometry x="473" width="118" height="40" as="geometry">
            <mxRectangle width="118" height="40" as="alternateBounds" />
          </mxGeometry>
        </mxCell>
        <mxCell id="muOvpEpb0NtmlUYYNEdW-196" value="" style="shape=partialRectangle;html=1;whiteSpace=wrap;connectable=0;strokeColor=inherit;overflow=hidden;fillColor=none;top=0;left=0;bottom=0;right=0;pointerEvents=1;rounded=0;align=center;verticalAlign=middle;fontFamily=Helvetica;fontSize=12;fontColor=default;" vertex="1" parent="muOvpEpb0NtmlUYYNEdW-190">
          <mxGeometry x="591" width="118" height="40" as="geometry">
            <mxRectangle width="118" height="40" as="alternateBounds" />
          </mxGeometry>
        </mxCell>
        <mxCell id="muOvpEpb0NtmlUYYNEdW-197" value="" style="shape=tableRow;horizontal=0;startSize=0;swimlaneHead=0;swimlaneBody=0;strokeColor=inherit;top=0;left=0;bottom=0;right=0;collapsible=0;dropTarget=0;fillColor=none;points=[[0,0.5],[1,0.5]];portConstraint=eastwest;rounded=0;align=center;verticalAlign=middle;fontFamily=Helvetica;fontSize=12;fontColor=default;" vertex="1" parent="muOvpEpb0NtmlUYYNEdW-154">
          <mxGeometry y="240" width="709" height="40" as="geometry" />
        </mxCell>
        <mxCell id="muOvpEpb0NtmlUYYNEdW-198" value="" style="shape=partialRectangle;html=1;whiteSpace=wrap;connectable=0;strokeColor=inherit;overflow=hidden;fillColor=none;top=0;left=0;bottom=0;right=0;pointerEvents=1;rounded=0;align=center;verticalAlign=middle;fontFamily=Helvetica;fontSize=12;fontColor=default;" vertex="1" parent="muOvpEpb0NtmlUYYNEdW-197">
          <mxGeometry width="118" height="40" as="geometry">
            <mxRectangle width="118" height="40" as="alternateBounds" />
          </mxGeometry>
        </mxCell>
        <mxCell id="muOvpEpb0NtmlUYYNEdW-199" value="" style="shape=partialRectangle;html=1;whiteSpace=wrap;connectable=0;strokeColor=inherit;overflow=hidden;fillColor=none;top=0;left=0;bottom=0;right=0;pointerEvents=1;rounded=0;align=center;verticalAlign=middle;fontFamily=Helvetica;fontSize=12;fontColor=default;" vertex="1" parent="muOvpEpb0NtmlUYYNEdW-197">
          <mxGeometry x="118" width="118" height="40" as="geometry">
            <mxRectangle width="118" height="40" as="alternateBounds" />
          </mxGeometry>
        </mxCell>
        <mxCell id="muOvpEpb0NtmlUYYNEdW-200" value="" style="shape=partialRectangle;html=1;whiteSpace=wrap;connectable=0;strokeColor=inherit;overflow=hidden;fillColor=none;top=0;left=0;bottom=0;right=0;pointerEvents=1;rounded=0;align=center;verticalAlign=middle;fontFamily=Helvetica;fontSize=12;fontColor=default;" vertex="1" parent="muOvpEpb0NtmlUYYNEdW-197">
          <mxGeometry x="236" width="119" height="40" as="geometry">
            <mxRectangle width="119" height="40" as="alternateBounds" />
          </mxGeometry>
        </mxCell>
        <mxCell id="muOvpEpb0NtmlUYYNEdW-201" value="" style="shape=partialRectangle;html=1;whiteSpace=wrap;connectable=0;strokeColor=inherit;overflow=hidden;fillColor=none;top=0;left=0;bottom=0;right=0;pointerEvents=1;rounded=0;align=center;verticalAlign=middle;fontFamily=Helvetica;fontSize=12;fontColor=default;" vertex="1" parent="muOvpEpb0NtmlUYYNEdW-197">
          <mxGeometry x="355" width="118" height="40" as="geometry">
            <mxRectangle width="118" height="40" as="alternateBounds" />
          </mxGeometry>
        </mxCell>
        <mxCell id="muOvpEpb0NtmlUYYNEdW-202" value="" style="shape=partialRectangle;html=1;whiteSpace=wrap;connectable=0;strokeColor=inherit;overflow=hidden;fillColor=none;top=0;left=0;bottom=0;right=0;pointerEvents=1;rounded=0;align=center;verticalAlign=middle;fontFamily=Helvetica;fontSize=12;fontColor=default;" vertex="1" parent="muOvpEpb0NtmlUYYNEdW-197">
          <mxGeometry x="473" width="118" height="40" as="geometry">
            <mxRectangle width="118" height="40" as="alternateBounds" />
          </mxGeometry>
        </mxCell>
        <mxCell id="muOvpEpb0NtmlUYYNEdW-203" value="" style="shape=partialRectangle;html=1;whiteSpace=wrap;connectable=0;strokeColor=inherit;overflow=hidden;fillColor=none;top=0;left=0;bottom=0;right=0;pointerEvents=1;rounded=0;align=center;verticalAlign=middle;fontFamily=Helvetica;fontSize=12;fontColor=default;" vertex="1" parent="muOvpEpb0NtmlUYYNEdW-197">
          <mxGeometry x="591" width="118" height="40" as="geometry">
            <mxRectangle width="118" height="40" as="alternateBounds" />
          </mxGeometry>
        </mxCell>
        <mxCell id="muOvpEpb0NtmlUYYNEdW-204" value="" style="shape=tableRow;horizontal=0;startSize=0;swimlaneHead=0;swimlaneBody=0;strokeColor=inherit;top=0;left=0;bottom=0;right=0;collapsible=0;dropTarget=0;fillColor=none;points=[[0,0.5],[1,0.5]];portConstraint=eastwest;rounded=0;align=center;verticalAlign=middle;fontFamily=Helvetica;fontSize=12;fontColor=default;" vertex="1" parent="muOvpEpb0NtmlUYYNEdW-154">
          <mxGeometry y="280" width="709" height="40" as="geometry" />
        </mxCell>
        <mxCell id="muOvpEpb0NtmlUYYNEdW-205" value="" style="shape=partialRectangle;html=1;whiteSpace=wrap;connectable=0;strokeColor=inherit;overflow=hidden;fillColor=none;top=0;left=0;bottom=0;right=0;pointerEvents=1;rounded=0;align=center;verticalAlign=middle;fontFamily=Helvetica;fontSize=12;fontColor=default;" vertex="1" parent="muOvpEpb0NtmlUYYNEdW-204">
          <mxGeometry width="118" height="40" as="geometry">
            <mxRectangle width="118" height="40" as="alternateBounds" />
          </mxGeometry>
        </mxCell>
        <mxCell id="muOvpEpb0NtmlUYYNEdW-206" value="" style="shape=partialRectangle;html=1;whiteSpace=wrap;connectable=0;strokeColor=inherit;overflow=hidden;fillColor=none;top=0;left=0;bottom=0;right=0;pointerEvents=1;rounded=0;align=center;verticalAlign=middle;fontFamily=Helvetica;fontSize=12;fontColor=default;" vertex="1" parent="muOvpEpb0NtmlUYYNEdW-204">
          <mxGeometry x="118" width="118" height="40" as="geometry">
            <mxRectangle width="118" height="40" as="alternateBounds" />
          </mxGeometry>
        </mxCell>
        <mxCell id="muOvpEpb0NtmlUYYNEdW-207" value="" style="shape=partialRectangle;html=1;whiteSpace=wrap;connectable=0;strokeColor=inherit;overflow=hidden;fillColor=none;top=0;left=0;bottom=0;right=0;pointerEvents=1;rounded=0;align=center;verticalAlign=middle;fontFamily=Helvetica;fontSize=12;fontColor=default;" vertex="1" parent="muOvpEpb0NtmlUYYNEdW-204">
          <mxGeometry x="236" width="119" height="40" as="geometry">
            <mxRectangle width="119" height="40" as="alternateBounds" />
          </mxGeometry>
        </mxCell>
        <mxCell id="muOvpEpb0NtmlUYYNEdW-208" value="" style="shape=partialRectangle;html=1;whiteSpace=wrap;connectable=0;strokeColor=inherit;overflow=hidden;fillColor=none;top=0;left=0;bottom=0;right=0;pointerEvents=1;rounded=0;align=center;verticalAlign=middle;fontFamily=Helvetica;fontSize=12;fontColor=default;" vertex="1" parent="muOvpEpb0NtmlUYYNEdW-204">
          <mxGeometry x="355" width="118" height="40" as="geometry">
            <mxRectangle width="118" height="40" as="alternateBounds" />
          </mxGeometry>
        </mxCell>
        <mxCell id="muOvpEpb0NtmlUYYNEdW-209" value="" style="shape=partialRectangle;html=1;whiteSpace=wrap;connectable=0;strokeColor=inherit;overflow=hidden;fillColor=none;top=0;left=0;bottom=0;right=0;pointerEvents=1;rounded=0;align=center;verticalAlign=middle;fontFamily=Helvetica;fontSize=12;fontColor=default;" vertex="1" parent="muOvpEpb0NtmlUYYNEdW-204">
          <mxGeometry x="473" width="118" height="40" as="geometry">
            <mxRectangle width="118" height="40" as="alternateBounds" />
          </mxGeometry>
        </mxCell>
        <mxCell id="muOvpEpb0NtmlUYYNEdW-210" value="" style="shape=partialRectangle;html=1;whiteSpace=wrap;connectable=0;strokeColor=inherit;overflow=hidden;fillColor=none;top=0;left=0;bottom=0;right=0;pointerEvents=1;rounded=0;align=center;verticalAlign=middle;fontFamily=Helvetica;fontSize=12;fontColor=default;" vertex="1" parent="muOvpEpb0NtmlUYYNEdW-204">
          <mxGeometry x="591" width="118" height="40" as="geometry">
            <mxRectangle width="118" height="40" as="alternateBounds" />
          </mxGeometry>
        </mxCell>
        <mxCell id="muOvpEpb0NtmlUYYNEdW-211" value="" style="shape=tableRow;horizontal=0;startSize=0;swimlaneHead=0;swimlaneBody=0;strokeColor=inherit;top=0;left=0;bottom=0;right=0;collapsible=0;dropTarget=0;fillColor=none;points=[[0,0.5],[1,0.5]];portConstraint=eastwest;rounded=0;align=center;verticalAlign=middle;fontFamily=Helvetica;fontSize=12;fontColor=default;" vertex="1" parent="muOvpEpb0NtmlUYYNEdW-154">
          <mxGeometry y="320" width="709" height="40" as="geometry" />
        </mxCell>
        <mxCell id="muOvpEpb0NtmlUYYNEdW-212" value="" style="shape=partialRectangle;html=1;whiteSpace=wrap;connectable=0;strokeColor=inherit;overflow=hidden;fillColor=none;top=0;left=0;bottom=0;right=0;pointerEvents=1;rounded=0;align=center;verticalAlign=middle;fontFamily=Helvetica;fontSize=12;fontColor=default;" vertex="1" parent="muOvpEpb0NtmlUYYNEdW-211">
          <mxGeometry width="118" height="40" as="geometry">
            <mxRectangle width="118" height="40" as="alternateBounds" />
          </mxGeometry>
        </mxCell>
        <mxCell id="muOvpEpb0NtmlUYYNEdW-213" value="" style="shape=partialRectangle;html=1;whiteSpace=wrap;connectable=0;strokeColor=inherit;overflow=hidden;fillColor=none;top=0;left=0;bottom=0;right=0;pointerEvents=1;rounded=0;align=center;verticalAlign=middle;fontFamily=Helvetica;fontSize=12;fontColor=default;" vertex="1" parent="muOvpEpb0NtmlUYYNEdW-211">
          <mxGeometry x="118" width="118" height="40" as="geometry">
            <mxRectangle width="118" height="40" as="alternateBounds" />
          </mxGeometry>
        </mxCell>
        <mxCell id="muOvpEpb0NtmlUYYNEdW-214" value="" style="shape=partialRectangle;html=1;whiteSpace=wrap;connectable=0;strokeColor=inherit;overflow=hidden;fillColor=none;top=0;left=0;bottom=0;right=0;pointerEvents=1;rounded=0;align=center;verticalAlign=middle;fontFamily=Helvetica;fontSize=12;fontColor=default;" vertex="1" parent="muOvpEpb0NtmlUYYNEdW-211">
          <mxGeometry x="236" width="119" height="40" as="geometry">
            <mxRectangle width="119" height="40" as="alternateBounds" />
          </mxGeometry>
        </mxCell>
        <mxCell id="muOvpEpb0NtmlUYYNEdW-215" value="" style="shape=partialRectangle;html=1;whiteSpace=wrap;connectable=0;strokeColor=inherit;overflow=hidden;fillColor=none;top=0;left=0;bottom=0;right=0;pointerEvents=1;rounded=0;align=center;verticalAlign=middle;fontFamily=Helvetica;fontSize=12;fontColor=default;" vertex="1" parent="muOvpEpb0NtmlUYYNEdW-211">
          <mxGeometry x="355" width="118" height="40" as="geometry">
            <mxRectangle width="118" height="40" as="alternateBounds" />
          </mxGeometry>
        </mxCell>
        <mxCell id="muOvpEpb0NtmlUYYNEdW-216" value="" style="shape=partialRectangle;html=1;whiteSpace=wrap;connectable=0;strokeColor=inherit;overflow=hidden;fillColor=none;top=0;left=0;bottom=0;right=0;pointerEvents=1;rounded=0;align=center;verticalAlign=middle;fontFamily=Helvetica;fontSize=12;fontColor=default;" vertex="1" parent="muOvpEpb0NtmlUYYNEdW-211">
          <mxGeometry x="473" width="118" height="40" as="geometry">
            <mxRectangle width="118" height="40" as="alternateBounds" />
          </mxGeometry>
        </mxCell>
        <mxCell id="muOvpEpb0NtmlUYYNEdW-217" value="" style="shape=partialRectangle;html=1;whiteSpace=wrap;connectable=0;strokeColor=inherit;overflow=hidden;fillColor=none;top=0;left=0;bottom=0;right=0;pointerEvents=1;rounded=0;align=center;verticalAlign=middle;fontFamily=Helvetica;fontSize=12;fontColor=default;" vertex="1" parent="muOvpEpb0NtmlUYYNEdW-211">
          <mxGeometry x="591" width="118" height="40" as="geometry">
            <mxRectangle width="118" height="40" as="alternateBounds" />
          </mxGeometry>
        </mxCell>
        <mxCell id="muOvpEpb0NtmlUYYNEdW-218" value="" style="shape=tableRow;horizontal=0;startSize=0;swimlaneHead=0;swimlaneBody=0;strokeColor=inherit;top=0;left=0;bottom=0;right=0;collapsible=0;dropTarget=0;fillColor=none;points=[[0,0.5],[1,0.5]];portConstraint=eastwest;rounded=0;align=center;verticalAlign=middle;fontFamily=Helvetica;fontSize=12;fontColor=default;" vertex="1" parent="muOvpEpb0NtmlUYYNEdW-154">
          <mxGeometry y="360" width="709" height="40" as="geometry" />
        </mxCell>
        <mxCell id="muOvpEpb0NtmlUYYNEdW-219" value="" style="shape=partialRectangle;html=1;whiteSpace=wrap;connectable=0;strokeColor=inherit;overflow=hidden;fillColor=none;top=0;left=0;bottom=0;right=0;pointerEvents=1;rounded=0;align=center;verticalAlign=middle;fontFamily=Helvetica;fontSize=12;fontColor=default;" vertex="1" parent="muOvpEpb0NtmlUYYNEdW-218">
          <mxGeometry width="118" height="40" as="geometry">
            <mxRectangle width="118" height="40" as="alternateBounds" />
          </mxGeometry>
        </mxCell>
        <mxCell id="muOvpEpb0NtmlUYYNEdW-220" value="" style="shape=partialRectangle;html=1;whiteSpace=wrap;connectable=0;strokeColor=inherit;overflow=hidden;fillColor=none;top=0;left=0;bottom=0;right=0;pointerEvents=1;rounded=0;align=center;verticalAlign=middle;fontFamily=Helvetica;fontSize=12;fontColor=default;" vertex="1" parent="muOvpEpb0NtmlUYYNEdW-218">
          <mxGeometry x="118" width="118" height="40" as="geometry">
            <mxRectangle width="118" height="40" as="alternateBounds" />
          </mxGeometry>
        </mxCell>
        <mxCell id="muOvpEpb0NtmlUYYNEdW-221" value="" style="shape=partialRectangle;html=1;whiteSpace=wrap;connectable=0;strokeColor=inherit;overflow=hidden;fillColor=none;top=0;left=0;bottom=0;right=0;pointerEvents=1;rounded=0;align=center;verticalAlign=middle;fontFamily=Helvetica;fontSize=12;fontColor=default;" vertex="1" parent="muOvpEpb0NtmlUYYNEdW-218">
          <mxGeometry x="236" width="119" height="40" as="geometry">
            <mxRectangle width="119" height="40" as="alternateBounds" />
          </mxGeometry>
        </mxCell>
        <mxCell id="muOvpEpb0NtmlUYYNEdW-222" value="" style="shape=partialRectangle;html=1;whiteSpace=wrap;connectable=0;strokeColor=inherit;overflow=hidden;fillColor=none;top=0;left=0;bottom=0;right=0;pointerEvents=1;rounded=0;align=center;verticalAlign=middle;fontFamily=Helvetica;fontSize=12;fontColor=default;" vertex="1" parent="muOvpEpb0NtmlUYYNEdW-218">
          <mxGeometry x="355" width="118" height="40" as="geometry">
            <mxRectangle width="118" height="40" as="alternateBounds" />
          </mxGeometry>
        </mxCell>
        <mxCell id="muOvpEpb0NtmlUYYNEdW-223" value="" style="shape=partialRectangle;html=1;whiteSpace=wrap;connectable=0;strokeColor=inherit;overflow=hidden;fillColor=none;top=0;left=0;bottom=0;right=0;pointerEvents=1;rounded=0;align=center;verticalAlign=middle;fontFamily=Helvetica;fontSize=12;fontColor=default;" vertex="1" parent="muOvpEpb0NtmlUYYNEdW-218">
          <mxGeometry x="473" width="118" height="40" as="geometry">
            <mxRectangle width="118" height="40" as="alternateBounds" />
          </mxGeometry>
        </mxCell>
        <mxCell id="muOvpEpb0NtmlUYYNEdW-224" value="" style="shape=partialRectangle;html=1;whiteSpace=wrap;connectable=0;strokeColor=inherit;overflow=hidden;fillColor=none;top=0;left=0;bottom=0;right=0;pointerEvents=1;rounded=0;align=center;verticalAlign=middle;fontFamily=Helvetica;fontSize=12;fontColor=default;" vertex="1" parent="muOvpEpb0NtmlUYYNEdW-218">
          <mxGeometry x="591" width="118" height="40" as="geometry">
            <mxRectangle width="118" height="40" as="alternateBounds" />
          </mxGeometry>
        </mxCell>
        <mxCell id="muOvpEpb0NtmlUYYNEdW-225" value="" style="shape=tableRow;horizontal=0;startSize=0;swimlaneHead=0;swimlaneBody=0;strokeColor=inherit;top=0;left=0;bottom=0;right=0;collapsible=0;dropTarget=0;fillColor=none;points=[[0,0.5],[1,0.5]];portConstraint=eastwest;rounded=0;align=center;verticalAlign=middle;fontFamily=Helvetica;fontSize=12;fontColor=default;" vertex="1" parent="muOvpEpb0NtmlUYYNEdW-154">
          <mxGeometry y="400" width="709" height="40" as="geometry" />
        </mxCell>
        <mxCell id="muOvpEpb0NtmlUYYNEdW-226" value="" style="shape=partialRectangle;html=1;whiteSpace=wrap;connectable=0;strokeColor=inherit;overflow=hidden;fillColor=none;top=0;left=0;bottom=0;right=0;pointerEvents=1;rounded=0;align=center;verticalAlign=middle;fontFamily=Helvetica;fontSize=12;fontColor=default;" vertex="1" parent="muOvpEpb0NtmlUYYNEdW-225">
          <mxGeometry width="118" height="40" as="geometry">
            <mxRectangle width="118" height="40" as="alternateBounds" />
          </mxGeometry>
        </mxCell>
        <mxCell id="muOvpEpb0NtmlUYYNEdW-227" value="" style="shape=partialRectangle;html=1;whiteSpace=wrap;connectable=0;strokeColor=inherit;overflow=hidden;fillColor=none;top=0;left=0;bottom=0;right=0;pointerEvents=1;rounded=0;align=center;verticalAlign=middle;fontFamily=Helvetica;fontSize=12;fontColor=default;" vertex="1" parent="muOvpEpb0NtmlUYYNEdW-225">
          <mxGeometry x="118" width="118" height="40" as="geometry">
            <mxRectangle width="118" height="40" as="alternateBounds" />
          </mxGeometry>
        </mxCell>
        <mxCell id="muOvpEpb0NtmlUYYNEdW-228" value="" style="shape=partialRectangle;html=1;whiteSpace=wrap;connectable=0;strokeColor=inherit;overflow=hidden;fillColor=none;top=0;left=0;bottom=0;right=0;pointerEvents=1;rounded=0;align=center;verticalAlign=middle;fontFamily=Helvetica;fontSize=12;fontColor=default;" vertex="1" parent="muOvpEpb0NtmlUYYNEdW-225">
          <mxGeometry x="236" width="119" height="40" as="geometry">
            <mxRectangle width="119" height="40" as="alternateBounds" />
          </mxGeometry>
        </mxCell>
        <mxCell id="muOvpEpb0NtmlUYYNEdW-229" value="" style="shape=partialRectangle;html=1;whiteSpace=wrap;connectable=0;strokeColor=inherit;overflow=hidden;fillColor=none;top=0;left=0;bottom=0;right=0;pointerEvents=1;rounded=0;align=center;verticalAlign=middle;fontFamily=Helvetica;fontSize=12;fontColor=default;" vertex="1" parent="muOvpEpb0NtmlUYYNEdW-225">
          <mxGeometry x="355" width="118" height="40" as="geometry">
            <mxRectangle width="118" height="40" as="alternateBounds" />
          </mxGeometry>
        </mxCell>
        <mxCell id="muOvpEpb0NtmlUYYNEdW-230" value="" style="shape=partialRectangle;html=1;whiteSpace=wrap;connectable=0;strokeColor=inherit;overflow=hidden;fillColor=none;top=0;left=0;bottom=0;right=0;pointerEvents=1;rounded=0;align=center;verticalAlign=middle;fontFamily=Helvetica;fontSize=12;fontColor=default;" vertex="1" parent="muOvpEpb0NtmlUYYNEdW-225">
          <mxGeometry x="473" width="118" height="40" as="geometry">
            <mxRectangle width="118" height="40" as="alternateBounds" />
          </mxGeometry>
        </mxCell>
        <mxCell id="muOvpEpb0NtmlUYYNEdW-231" value="" style="shape=partialRectangle;html=1;whiteSpace=wrap;connectable=0;strokeColor=inherit;overflow=hidden;fillColor=none;top=0;left=0;bottom=0;right=0;pointerEvents=1;rounded=0;align=center;verticalAlign=middle;fontFamily=Helvetica;fontSize=12;fontColor=default;" vertex="1" parent="muOvpEpb0NtmlUYYNEdW-225">
          <mxGeometry x="591" width="118" height="40" as="geometry">
            <mxRectangle width="118" height="40" as="alternateBounds" />
          </mxGeometry>
        </mxCell>
        <mxCell id="muOvpEpb0NtmlUYYNEdW-232" value="" style="shape=tableRow;horizontal=0;startSize=0;swimlaneHead=0;swimlaneBody=0;strokeColor=inherit;top=0;left=0;bottom=0;right=0;collapsible=0;dropTarget=0;fillColor=none;points=[[0,0.5],[1,0.5]];portConstraint=eastwest;rounded=0;align=center;verticalAlign=middle;fontFamily=Helvetica;fontSize=12;fontColor=default;" vertex="1" parent="muOvpEpb0NtmlUYYNEdW-154">
          <mxGeometry y="440" width="709" height="40" as="geometry" />
        </mxCell>
        <mxCell id="muOvpEpb0NtmlUYYNEdW-233" value="" style="shape=partialRectangle;html=1;whiteSpace=wrap;connectable=0;strokeColor=inherit;overflow=hidden;fillColor=none;top=0;left=0;bottom=0;right=0;pointerEvents=1;rounded=0;align=center;verticalAlign=middle;fontFamily=Helvetica;fontSize=12;fontColor=default;" vertex="1" parent="muOvpEpb0NtmlUYYNEdW-232">
          <mxGeometry width="118" height="40" as="geometry">
            <mxRectangle width="118" height="40" as="alternateBounds" />
          </mxGeometry>
        </mxCell>
        <mxCell id="muOvpEpb0NtmlUYYNEdW-234" value="" style="shape=partialRectangle;html=1;whiteSpace=wrap;connectable=0;strokeColor=inherit;overflow=hidden;fillColor=none;top=0;left=0;bottom=0;right=0;pointerEvents=1;rounded=0;align=center;verticalAlign=middle;fontFamily=Helvetica;fontSize=12;fontColor=default;" vertex="1" parent="muOvpEpb0NtmlUYYNEdW-232">
          <mxGeometry x="118" width="118" height="40" as="geometry">
            <mxRectangle width="118" height="40" as="alternateBounds" />
          </mxGeometry>
        </mxCell>
        <mxCell id="muOvpEpb0NtmlUYYNEdW-235" value="" style="shape=partialRectangle;html=1;whiteSpace=wrap;connectable=0;strokeColor=inherit;overflow=hidden;fillColor=none;top=0;left=0;bottom=0;right=0;pointerEvents=1;rounded=0;align=center;verticalAlign=middle;fontFamily=Helvetica;fontSize=12;fontColor=default;" vertex="1" parent="muOvpEpb0NtmlUYYNEdW-232">
          <mxGeometry x="236" width="119" height="40" as="geometry">
            <mxRectangle width="119" height="40" as="alternateBounds" />
          </mxGeometry>
        </mxCell>
        <mxCell id="muOvpEpb0NtmlUYYNEdW-236" value="" style="shape=partialRectangle;html=1;whiteSpace=wrap;connectable=0;strokeColor=inherit;overflow=hidden;fillColor=none;top=0;left=0;bottom=0;right=0;pointerEvents=1;rounded=0;align=center;verticalAlign=middle;fontFamily=Helvetica;fontSize=12;fontColor=default;" vertex="1" parent="muOvpEpb0NtmlUYYNEdW-232">
          <mxGeometry x="355" width="118" height="40" as="geometry">
            <mxRectangle width="118" height="40" as="alternateBounds" />
          </mxGeometry>
        </mxCell>
        <mxCell id="muOvpEpb0NtmlUYYNEdW-237" value="" style="shape=partialRectangle;html=1;whiteSpace=wrap;connectable=0;strokeColor=inherit;overflow=hidden;fillColor=none;top=0;left=0;bottom=0;right=0;pointerEvents=1;rounded=0;align=center;verticalAlign=middle;fontFamily=Helvetica;fontSize=12;fontColor=default;" vertex="1" parent="muOvpEpb0NtmlUYYNEdW-232">
          <mxGeometry x="473" width="118" height="40" as="geometry">
            <mxRectangle width="118" height="40" as="alternateBounds" />
          </mxGeometry>
        </mxCell>
        <mxCell id="muOvpEpb0NtmlUYYNEdW-238" value="" style="shape=partialRectangle;html=1;whiteSpace=wrap;connectable=0;strokeColor=inherit;overflow=hidden;fillColor=none;top=0;left=0;bottom=0;right=0;pointerEvents=1;rounded=0;align=center;verticalAlign=middle;fontFamily=Helvetica;fontSize=12;fontColor=default;" vertex="1" parent="muOvpEpb0NtmlUYYNEdW-232">
          <mxGeometry x="591" width="118" height="40" as="geometry">
            <mxRectangle width="118" height="40" as="alternateBounds" />
          </mxGeometry>
        </mxCell>
        <mxCell id="muOvpEpb0NtmlUYYNEdW-239" value="" style="shape=tableRow;horizontal=0;startSize=0;swimlaneHead=0;swimlaneBody=0;strokeColor=inherit;top=0;left=0;bottom=0;right=0;collapsible=0;dropTarget=0;fillColor=none;points=[[0,0.5],[1,0.5]];portConstraint=eastwest;rounded=0;align=center;verticalAlign=middle;fontFamily=Helvetica;fontSize=12;fontColor=default;" vertex="1" parent="muOvpEpb0NtmlUYYNEdW-154">
          <mxGeometry y="480" width="709" height="40" as="geometry" />
        </mxCell>
        <mxCell id="muOvpEpb0NtmlUYYNEdW-240" value="" style="shape=partialRectangle;html=1;whiteSpace=wrap;connectable=0;strokeColor=inherit;overflow=hidden;fillColor=none;top=0;left=0;bottom=0;right=0;pointerEvents=1;rounded=0;align=center;verticalAlign=middle;fontFamily=Helvetica;fontSize=12;fontColor=default;" vertex="1" parent="muOvpEpb0NtmlUYYNEdW-239">
          <mxGeometry width="118" height="40" as="geometry">
            <mxRectangle width="118" height="40" as="alternateBounds" />
          </mxGeometry>
        </mxCell>
        <mxCell id="muOvpEpb0NtmlUYYNEdW-241" value="" style="shape=partialRectangle;html=1;whiteSpace=wrap;connectable=0;strokeColor=inherit;overflow=hidden;fillColor=none;top=0;left=0;bottom=0;right=0;pointerEvents=1;rounded=0;align=center;verticalAlign=middle;fontFamily=Helvetica;fontSize=12;fontColor=default;" vertex="1" parent="muOvpEpb0NtmlUYYNEdW-239">
          <mxGeometry x="118" width="118" height="40" as="geometry">
            <mxRectangle width="118" height="40" as="alternateBounds" />
          </mxGeometry>
        </mxCell>
        <mxCell id="muOvpEpb0NtmlUYYNEdW-242" value="" style="shape=partialRectangle;html=1;whiteSpace=wrap;connectable=0;strokeColor=inherit;overflow=hidden;fillColor=none;top=0;left=0;bottom=0;right=0;pointerEvents=1;rounded=0;align=center;verticalAlign=middle;fontFamily=Helvetica;fontSize=12;fontColor=default;" vertex="1" parent="muOvpEpb0NtmlUYYNEdW-239">
          <mxGeometry x="236" width="119" height="40" as="geometry">
            <mxRectangle width="119" height="40" as="alternateBounds" />
          </mxGeometry>
        </mxCell>
        <mxCell id="muOvpEpb0NtmlUYYNEdW-243" value="" style="shape=partialRectangle;html=1;whiteSpace=wrap;connectable=0;strokeColor=inherit;overflow=hidden;fillColor=none;top=0;left=0;bottom=0;right=0;pointerEvents=1;rounded=0;align=center;verticalAlign=middle;fontFamily=Helvetica;fontSize=12;fontColor=default;" vertex="1" parent="muOvpEpb0NtmlUYYNEdW-239">
          <mxGeometry x="355" width="118" height="40" as="geometry">
            <mxRectangle width="118" height="40" as="alternateBounds" />
          </mxGeometry>
        </mxCell>
        <mxCell id="muOvpEpb0NtmlUYYNEdW-244" value="" style="shape=partialRectangle;html=1;whiteSpace=wrap;connectable=0;strokeColor=inherit;overflow=hidden;fillColor=none;top=0;left=0;bottom=0;right=0;pointerEvents=1;rounded=0;align=center;verticalAlign=middle;fontFamily=Helvetica;fontSize=12;fontColor=default;" vertex="1" parent="muOvpEpb0NtmlUYYNEdW-239">
          <mxGeometry x="473" width="118" height="40" as="geometry">
            <mxRectangle width="118" height="40" as="alternateBounds" />
          </mxGeometry>
        </mxCell>
        <mxCell id="muOvpEpb0NtmlUYYNEdW-245" value="" style="shape=partialRectangle;html=1;whiteSpace=wrap;connectable=0;strokeColor=inherit;overflow=hidden;fillColor=none;top=0;left=0;bottom=0;right=0;pointerEvents=1;rounded=0;align=center;verticalAlign=middle;fontFamily=Helvetica;fontSize=12;fontColor=default;" vertex="1" parent="muOvpEpb0NtmlUYYNEdW-239">
          <mxGeometry x="591" width="118" height="40" as="geometry">
            <mxRectangle width="118" height="40" as="alternateBounds" />
          </mxGeometry>
        </mxCell>
        <mxCell id="muOvpEpb0NtmlUYYNEdW-246" value="" style="shape=tableRow;horizontal=0;startSize=0;swimlaneHead=0;swimlaneBody=0;strokeColor=inherit;top=0;left=0;bottom=0;right=0;collapsible=0;dropTarget=0;fillColor=none;points=[[0,0.5],[1,0.5]];portConstraint=eastwest;rounded=0;align=center;verticalAlign=middle;fontFamily=Helvetica;fontSize=12;fontColor=default;" vertex="1" parent="muOvpEpb0NtmlUYYNEdW-154">
          <mxGeometry y="520" width="709" height="40" as="geometry" />
        </mxCell>
        <mxCell id="muOvpEpb0NtmlUYYNEdW-247" value="" style="shape=partialRectangle;html=1;whiteSpace=wrap;connectable=0;strokeColor=inherit;overflow=hidden;fillColor=none;top=0;left=0;bottom=0;right=0;pointerEvents=1;rounded=0;align=center;verticalAlign=middle;fontFamily=Helvetica;fontSize=12;fontColor=default;" vertex="1" parent="muOvpEpb0NtmlUYYNEdW-246">
          <mxGeometry width="118" height="40" as="geometry">
            <mxRectangle width="118" height="40" as="alternateBounds" />
          </mxGeometry>
        </mxCell>
        <mxCell id="muOvpEpb0NtmlUYYNEdW-248" value="" style="shape=partialRectangle;html=1;whiteSpace=wrap;connectable=0;strokeColor=inherit;overflow=hidden;fillColor=none;top=0;left=0;bottom=0;right=0;pointerEvents=1;rounded=0;align=center;verticalAlign=middle;fontFamily=Helvetica;fontSize=12;fontColor=default;" vertex="1" parent="muOvpEpb0NtmlUYYNEdW-246">
          <mxGeometry x="118" width="118" height="40" as="geometry">
            <mxRectangle width="118" height="40" as="alternateBounds" />
          </mxGeometry>
        </mxCell>
        <mxCell id="muOvpEpb0NtmlUYYNEdW-249" value="" style="shape=partialRectangle;html=1;whiteSpace=wrap;connectable=0;strokeColor=inherit;overflow=hidden;fillColor=none;top=0;left=0;bottom=0;right=0;pointerEvents=1;rounded=0;align=center;verticalAlign=middle;fontFamily=Helvetica;fontSize=12;fontColor=default;" vertex="1" parent="muOvpEpb0NtmlUYYNEdW-246">
          <mxGeometry x="236" width="119" height="40" as="geometry">
            <mxRectangle width="119" height="40" as="alternateBounds" />
          </mxGeometry>
        </mxCell>
        <mxCell id="muOvpEpb0NtmlUYYNEdW-250" value="" style="shape=partialRectangle;html=1;whiteSpace=wrap;connectable=0;strokeColor=inherit;overflow=hidden;fillColor=none;top=0;left=0;bottom=0;right=0;pointerEvents=1;rounded=0;align=center;verticalAlign=middle;fontFamily=Helvetica;fontSize=12;fontColor=default;" vertex="1" parent="muOvpEpb0NtmlUYYNEdW-246">
          <mxGeometry x="355" width="118" height="40" as="geometry">
            <mxRectangle width="118" height="40" as="alternateBounds" />
          </mxGeometry>
        </mxCell>
        <mxCell id="muOvpEpb0NtmlUYYNEdW-251" value="" style="shape=partialRectangle;html=1;whiteSpace=wrap;connectable=0;strokeColor=inherit;overflow=hidden;fillColor=none;top=0;left=0;bottom=0;right=0;pointerEvents=1;rounded=0;align=center;verticalAlign=middle;fontFamily=Helvetica;fontSize=12;fontColor=default;" vertex="1" parent="muOvpEpb0NtmlUYYNEdW-246">
          <mxGeometry x="473" width="118" height="40" as="geometry">
            <mxRectangle width="118" height="40" as="alternateBounds" />
          </mxGeometry>
        </mxCell>
        <mxCell id="muOvpEpb0NtmlUYYNEdW-252" value="" style="shape=partialRectangle;html=1;whiteSpace=wrap;connectable=0;strokeColor=inherit;overflow=hidden;fillColor=none;top=0;left=0;bottom=0;right=0;pointerEvents=1;rounded=0;align=center;verticalAlign=middle;fontFamily=Helvetica;fontSize=12;fontColor=default;" vertex="1" parent="muOvpEpb0NtmlUYYNEdW-246">
          <mxGeometry x="591" width="118" height="40" as="geometry">
            <mxRectangle width="118" height="40" as="alternateBounds" />
          </mxGeometry>
        </mxCell>
        <mxCell id="muOvpEpb0NtmlUYYNEdW-253" value="" style="shape=tableRow;horizontal=0;startSize=0;swimlaneHead=0;swimlaneBody=0;strokeColor=inherit;top=0;left=0;bottom=0;right=0;collapsible=0;dropTarget=0;fillColor=none;points=[[0,0.5],[1,0.5]];portConstraint=eastwest;rounded=0;align=center;verticalAlign=middle;fontFamily=Helvetica;fontSize=12;fontColor=default;" vertex="1" parent="muOvpEpb0NtmlUYYNEdW-154">
          <mxGeometry y="560" width="709" height="40" as="geometry" />
        </mxCell>
        <mxCell id="muOvpEpb0NtmlUYYNEdW-254" value="" style="shape=partialRectangle;html=1;whiteSpace=wrap;connectable=0;strokeColor=inherit;overflow=hidden;fillColor=none;top=0;left=0;bottom=0;right=0;pointerEvents=1;rounded=0;align=center;verticalAlign=middle;fontFamily=Helvetica;fontSize=12;fontColor=default;" vertex="1" parent="muOvpEpb0NtmlUYYNEdW-253">
          <mxGeometry width="118" height="40" as="geometry">
            <mxRectangle width="118" height="40" as="alternateBounds" />
          </mxGeometry>
        </mxCell>
        <mxCell id="muOvpEpb0NtmlUYYNEdW-255" value="" style="shape=partialRectangle;html=1;whiteSpace=wrap;connectable=0;strokeColor=inherit;overflow=hidden;fillColor=none;top=0;left=0;bottom=0;right=0;pointerEvents=1;rounded=0;align=center;verticalAlign=middle;fontFamily=Helvetica;fontSize=12;fontColor=default;" vertex="1" parent="muOvpEpb0NtmlUYYNEdW-253">
          <mxGeometry x="118" width="118" height="40" as="geometry">
            <mxRectangle width="118" height="40" as="alternateBounds" />
          </mxGeometry>
        </mxCell>
        <mxCell id="muOvpEpb0NtmlUYYNEdW-256" value="" style="shape=partialRectangle;html=1;whiteSpace=wrap;connectable=0;strokeColor=inherit;overflow=hidden;fillColor=none;top=0;left=0;bottom=0;right=0;pointerEvents=1;rounded=0;align=center;verticalAlign=middle;fontFamily=Helvetica;fontSize=12;fontColor=default;" vertex="1" parent="muOvpEpb0NtmlUYYNEdW-253">
          <mxGeometry x="236" width="119" height="40" as="geometry">
            <mxRectangle width="119" height="40" as="alternateBounds" />
          </mxGeometry>
        </mxCell>
        <mxCell id="muOvpEpb0NtmlUYYNEdW-257" value="" style="shape=partialRectangle;html=1;whiteSpace=wrap;connectable=0;strokeColor=inherit;overflow=hidden;fillColor=none;top=0;left=0;bottom=0;right=0;pointerEvents=1;rounded=0;align=center;verticalAlign=middle;fontFamily=Helvetica;fontSize=12;fontColor=default;" vertex="1" parent="muOvpEpb0NtmlUYYNEdW-253">
          <mxGeometry x="355" width="118" height="40" as="geometry">
            <mxRectangle width="118" height="40" as="alternateBounds" />
          </mxGeometry>
        </mxCell>
        <mxCell id="muOvpEpb0NtmlUYYNEdW-258" value="" style="shape=partialRectangle;html=1;whiteSpace=wrap;connectable=0;strokeColor=inherit;overflow=hidden;fillColor=none;top=0;left=0;bottom=0;right=0;pointerEvents=1;rounded=0;align=center;verticalAlign=middle;fontFamily=Helvetica;fontSize=12;fontColor=default;" vertex="1" parent="muOvpEpb0NtmlUYYNEdW-253">
          <mxGeometry x="473" width="118" height="40" as="geometry">
            <mxRectangle width="118" height="40" as="alternateBounds" />
          </mxGeometry>
        </mxCell>
        <mxCell id="muOvpEpb0NtmlUYYNEdW-259" value="" style="shape=partialRectangle;html=1;whiteSpace=wrap;connectable=0;strokeColor=inherit;overflow=hidden;fillColor=none;top=0;left=0;bottom=0;right=0;pointerEvents=1;rounded=0;align=center;verticalAlign=middle;fontFamily=Helvetica;fontSize=12;fontColor=default;" vertex="1" parent="muOvpEpb0NtmlUYYNEdW-253">
          <mxGeometry x="591" width="118" height="40" as="geometry">
            <mxRectangle width="118" height="40" as="alternateBounds" />
          </mxGeometry>
        </mxCell>
        <mxCell id="muOvpEpb0NtmlUYYNEdW-260" value="" style="shape=tableRow;horizontal=0;startSize=0;swimlaneHead=0;swimlaneBody=0;strokeColor=inherit;top=0;left=0;bottom=0;right=0;collapsible=0;dropTarget=0;fillColor=none;points=[[0,0.5],[1,0.5]];portConstraint=eastwest;rounded=0;align=center;verticalAlign=middle;fontFamily=Helvetica;fontSize=12;fontColor=default;" vertex="1" parent="muOvpEpb0NtmlUYYNEdW-154">
          <mxGeometry y="600" width="709" height="39" as="geometry" />
        </mxCell>
        <mxCell id="muOvpEpb0NtmlUYYNEdW-261" value="" style="shape=partialRectangle;html=1;whiteSpace=wrap;connectable=0;strokeColor=inherit;overflow=hidden;fillColor=none;top=0;left=0;bottom=0;right=0;pointerEvents=1;rounded=0;align=center;verticalAlign=middle;fontFamily=Helvetica;fontSize=12;fontColor=default;" vertex="1" parent="muOvpEpb0NtmlUYYNEdW-260">
          <mxGeometry width="118" height="39" as="geometry">
            <mxRectangle width="118" height="39" as="alternateBounds" />
          </mxGeometry>
        </mxCell>
        <mxCell id="muOvpEpb0NtmlUYYNEdW-262" value="" style="shape=partialRectangle;html=1;whiteSpace=wrap;connectable=0;strokeColor=inherit;overflow=hidden;fillColor=none;top=0;left=0;bottom=0;right=0;pointerEvents=1;rounded=0;align=center;verticalAlign=middle;fontFamily=Helvetica;fontSize=12;fontColor=default;" vertex="1" parent="muOvpEpb0NtmlUYYNEdW-260">
          <mxGeometry x="118" width="118" height="39" as="geometry">
            <mxRectangle width="118" height="39" as="alternateBounds" />
          </mxGeometry>
        </mxCell>
        <mxCell id="muOvpEpb0NtmlUYYNEdW-263" value="" style="shape=partialRectangle;html=1;whiteSpace=wrap;connectable=0;strokeColor=inherit;overflow=hidden;fillColor=none;top=0;left=0;bottom=0;right=0;pointerEvents=1;rounded=0;align=center;verticalAlign=middle;fontFamily=Helvetica;fontSize=12;fontColor=default;" vertex="1" parent="muOvpEpb0NtmlUYYNEdW-260">
          <mxGeometry x="236" width="119" height="39" as="geometry">
            <mxRectangle width="119" height="39" as="alternateBounds" />
          </mxGeometry>
        </mxCell>
        <mxCell id="muOvpEpb0NtmlUYYNEdW-264" value="" style="shape=partialRectangle;html=1;whiteSpace=wrap;connectable=0;strokeColor=inherit;overflow=hidden;fillColor=none;top=0;left=0;bottom=0;right=0;pointerEvents=1;rounded=0;align=center;verticalAlign=middle;fontFamily=Helvetica;fontSize=12;fontColor=default;" vertex="1" parent="muOvpEpb0NtmlUYYNEdW-260">
          <mxGeometry x="355" width="118" height="39" as="geometry">
            <mxRectangle width="118" height="39" as="alternateBounds" />
          </mxGeometry>
        </mxCell>
        <mxCell id="muOvpEpb0NtmlUYYNEdW-265" value="" style="shape=partialRectangle;html=1;whiteSpace=wrap;connectable=0;strokeColor=inherit;overflow=hidden;fillColor=none;top=0;left=0;bottom=0;right=0;pointerEvents=1;rounded=0;align=center;verticalAlign=middle;fontFamily=Helvetica;fontSize=12;fontColor=default;" vertex="1" parent="muOvpEpb0NtmlUYYNEdW-260">
          <mxGeometry x="473" width="118" height="39" as="geometry">
            <mxRectangle width="118" height="39" as="alternateBounds" />
          </mxGeometry>
        </mxCell>
        <mxCell id="muOvpEpb0NtmlUYYNEdW-266" value="" style="shape=partialRectangle;html=1;whiteSpace=wrap;connectable=0;strokeColor=inherit;overflow=hidden;fillColor=none;top=0;left=0;bottom=0;right=0;pointerEvents=1;rounded=0;align=center;verticalAlign=middle;fontFamily=Helvetica;fontSize=12;fontColor=default;" vertex="1" parent="muOvpEpb0NtmlUYYNEdW-260">
          <mxGeometry x="591" width="118" height="39" as="geometry">
            <mxRectangle width="118" height="39" as="alternateBounds" />
          </mxGeometry>
        </mxCell>
        <mxCell id="muOvpEpb0NtmlUYYNEdW-284" value="" style="group" vertex="1" connectable="0" parent="1">
          <mxGeometry x="-556" y="678" width="264" height="257" as="geometry" />
        </mxCell>
        <mxCell id="muOvpEpb0NtmlUYYNEdW-1" value="" style="whiteSpace=wrap;html=1;aspect=fixed;strokeWidth=3;" vertex="1" parent="muOvpEpb0NtmlUYYNEdW-284">
          <mxGeometry x="7" width="257" height="257" as="geometry" />
        </mxCell>
        <mxCell id="muOvpEpb0NtmlUYYNEdW-4" value="address" style="text;html=1;align=center;verticalAlign=middle;whiteSpace=wrap;rounded=0;fontSize=16;" vertex="1" parent="muOvpEpb0NtmlUYYNEdW-284">
          <mxGeometry y="7" width="100" height="39" as="geometry" />
        </mxCell>
        <mxCell id="muOvpEpb0NtmlUYYNEdW-6" value="&lt;b&gt;instruction memory&lt;/b&gt;" style="text;html=1;align=center;verticalAlign=middle;whiteSpace=wrap;rounded=0;fontSize=20;" vertex="1" parent="muOvpEpb0NtmlUYYNEdW-284">
          <mxGeometry x="78" y="208" width="110" height="30" as="geometry" />
        </mxCell>
        <mxCell id="muOvpEpb0NtmlUYYNEdW-28" value="instruction&lt;div&gt;[15:0]&lt;/div&gt;" style="text;html=1;align=center;verticalAlign=middle;whiteSpace=wrap;rounded=0;fontSize=16;" vertex="1" parent="muOvpEpb0NtmlUYYNEdW-284">
          <mxGeometry x="158" y="107.5" width="98" height="39" as="geometry" />
        </mxCell>
        <mxCell id="muOvpEpb0NtmlUYYNEdW-285" value="" style="group" vertex="1" connectable="0" parent="1">
          <mxGeometry x="547" y="252" width="232" height="192" as="geometry" />
        </mxCell>
        <mxCell id="muOvpEpb0NtmlUYYNEdW-268" value="" style="whiteSpace=wrap;html=1;aspect=fixed;strokeWidth=3;" vertex="1" parent="muOvpEpb0NtmlUYYNEdW-285">
          <mxGeometry x="27" width="192" height="192" as="geometry" />
        </mxCell>
        <mxCell id="muOvpEpb0NtmlUYYNEdW-269" value="&lt;b&gt;barrel shifter&lt;/b&gt;" style="text;html=1;align=center;verticalAlign=middle;whiteSpace=wrap;rounded=0;fontSize=20;" vertex="1" parent="muOvpEpb0NtmlUYYNEdW-285">
          <mxGeometry x="68" y="84" width="110" height="30" as="geometry" />
        </mxCell>
        <mxCell id="muOvpEpb0NtmlUYYNEdW-279" value="in" style="text;html=1;align=center;verticalAlign=middle;whiteSpace=wrap;rounded=0;fontSize=16;" vertex="1" parent="muOvpEpb0NtmlUYYNEdW-285">
          <mxGeometry x="-6" y="15" width="100" height="39" as="geometry" />
        </mxCell>
        <mxCell id="muOvpEpb0NtmlUYYNEdW-280" value="ShAmt" style="text;html=1;align=center;verticalAlign=middle;whiteSpace=wrap;rounded=0;fontSize=16;" vertex="1" parent="muOvpEpb0NtmlUYYNEdW-285">
          <mxGeometry x="13" y="145" width="100" height="39" as="geometry" />
        </mxCell>
        <mxCell id="muOvpEpb0NtmlUYYNEdW-281" value="out" style="text;html=1;align=center;verticalAlign=middle;whiteSpace=wrap;rounded=0;fontSize=16;" vertex="1" parent="muOvpEpb0NtmlUYYNEdW-285">
          <mxGeometry x="143" y="15" width="100" height="39" as="geometry" />
        </mxCell>
        <mxCell id="muOvpEpb0NtmlUYYNEdW-282" value="op" style="text;html=1;align=center;verticalAlign=middle;whiteSpace=wrap;rounded=0;fontSize=16;" vertex="1" parent="muOvpEpb0NtmlUYYNEdW-285">
          <mxGeometry x="-3" y="66" width="100" height="39" as="geometry" />
        </mxCell>
        <mxCell id="muOvpEpb0NtmlUYYNEdW-287" style="edgeStyle=orthogonalEdgeStyle;rounded=0;orthogonalLoop=1;jettySize=auto;html=1;entryX=0.179;entryY=0.985;entryDx=0;entryDy=0;entryPerimeter=0;exitX=0.96;exitY=0.59;exitDx=0;exitDy=0;exitPerimeter=0;" edge="1" parent="1" source="muOvpEpb0NtmlUYYNEdW-288" target="muOvpEpb0NtmlUYYNEdW-40">
          <mxGeometry relative="1" as="geometry">
            <mxPoint x="-552" y="466.71000000000004" as="targetPoint" />
            <mxPoint x="-593" y="467" as="sourcePoint" />
          </mxGeometry>
        </mxCell>
        <mxCell id="muOvpEpb0NtmlUYYNEdW-288" value="2" style="text;html=1;align=center;verticalAlign=middle;resizable=0;points=[];autosize=1;strokeColor=none;fillColor=none;fontFamily=Helvetica;fontSize=12;fontColor=default;" vertex="1" parent="1">
          <mxGeometry x="-600" y="450" width="25" height="26" as="geometry" />
        </mxCell>
      </root>
    </mxGraphModel>
  </diagram>
</mxfile>
